<svg width="123" height="35" viewBox="0 0 123 35" fill="none" xmlns="http://www.w3.org/2000/svg">
<g clip-path="url(#clip0_154_221)">
<path d="M24.9667 0H10.0333C4.49208 0 0 4.49208 0 10.0333V24.9667C0 30.5079 4.49208 35 10.0333 35H24.9667C30.5079 35 35 30.5079 35 24.9667V10.0333C35 4.49208 30.5079 0 24.9667 0Z" fill="black"/>
<path d="M20.6274 10.4419H21.499L21.9092 10.4761L22.439 10.5615L22.8833 10.6812L23.1909 10.7837L23.3618 10.8349L23.8404 11.04L24.1309 11.1938L24.4043 11.3306L24.5924 11.4502L24.7119 11.5185V11.5527L24.7802 11.5698L24.9853 11.7065V11.7407L25.0707 11.7749L25.2418 11.9116L25.3785 12.0142V12.0483L25.4469 12.0825L25.652 12.2705L25.7374 12.356L25.7885 12.3901V12.4243L25.8568 12.4585L26.0108 12.6294L26.1303 12.749L26.2159 12.8516V12.8857H26.25L26.3013 12.9712L26.3697 13.0395L26.4208 13.1079V13.1421H26.4551L26.4721 13.1934L26.5235 13.2446L26.5748 13.3301L26.6089 13.3472V13.3984H26.6432L26.814 13.6719L27.0704 14.0991L27.2071 14.3555L27.395 14.7656L27.566 15.227L27.6684 15.5518L27.7881 16.0303L27.8735 16.543L27.9076 16.8677L27.9249 17.1582V17.8931L27.8735 18.4399L27.8222 18.7988L27.6855 19.4141L27.5487 19.8413L27.3609 20.3198L27.0874 20.8667L26.9848 21.0547L26.7286 21.4648L26.6089 21.6528H26.5748L26.5405 21.7383L26.5064 21.7895H26.4721L26.4381 21.875L26.4208 21.9092H26.3867V21.9434L26.4551 21.9775L26.6259 22.1313L26.814 22.2851L27.0531 22.4902L27.2755 22.6611V22.6953H27.3096L27.4633 22.9175L27.5487 23.1396L27.583 23.2764L27.6001 23.5326L27.5487 23.8061L27.4804 23.9771L27.3609 24.1649L27.1388 24.3873L26.8823 24.524L26.6432 24.5924H26.4381L26.2159 24.5581L25.9936 24.4727L25.8228 24.37L25.5663 24.1309L25.4296 24.0112L25.2245 23.8233L25.0367 23.6693L24.8656 23.5156L24.7632 23.5326L24.2676 23.789L23.8574 23.9771L23.6693 24.0455L23.4645 24.1309L22.9346 24.3017L22.4732 24.4214L22.1313 24.4897L21.6699 24.5411L21.1401 24.5751H20.8154L20.2515 24.5411L19.8413 24.4897L19.3799 24.4043L18.8843 24.2676L18.3203 24.0795L18.1152 23.9941L17.7563 23.8404L17.4658 23.6866L17.2266 23.5669L16.8677 23.3618L16.4063 23.0542L16.1841 22.8833L15.9448 22.7124L15.7568 22.5757L15.5518 22.4219L15.3125 22.2339L15.0562 22.0117L14.8682 21.8579L14.646 21.6528L14.458 21.499L14.2871 21.3452L14.0991 21.1914L13.9111 21.0205L13.7232 20.8667L13.5352 20.6958L13.3984 20.5762L12.6807 19.9609L12.4756 19.7729L12.3047 19.6191L12.1167 19.4482L11.9629 19.209L11.8774 18.9868L11.8433 18.8501V18.5254L11.9116 18.2861L12.0142 18.081L12.1509 17.9101H12.1851V17.876L12.2705 17.8418V17.8076L12.5098 17.688L12.749 17.6196H13.0737L13.3643 17.7051L13.6377 17.876V17.9101L13.706 17.9443L13.7744 17.9956V18.0298L13.8428 18.064L13.9282 18.1323V18.1665L13.9966 18.2007L14.1333 18.3374L14.3213 18.4912L14.4067 18.5596L14.4922 18.645L14.6973 18.8159L14.7656 18.8843L14.7998 18.9014V18.9355L14.9023 18.9868V19.021L14.9707 19.0552L15.022 19.0893V19.1235H15.0562V19.1577L15.1245 19.1919L15.2612 19.3115L15.4834 19.4995L15.6201 19.6191L15.8423 19.8071L16.0303 19.9609V19.9951L16.0986 20.0293L16.3379 20.2344L16.5259 20.3882L16.5942 20.4395V20.4736L16.6626 20.5078L16.9019 20.6958L17.124 20.8667L17.2949 20.9863V21.0205L17.3804 21.0547L17.4487 21.106V21.1401L17.5342 21.1743L17.7051 21.2939V21.3281L17.7905 21.3623L18.081 21.5503L18.3545 21.7041L18.6279 21.8237L18.8501 21.9263L19.1577 22.0459L19.5508 22.1655L20.0293 22.2681L20.5078 22.3364L20.7642 22.3535H21.2427L21.6357 22.3193L22.1484 22.2339L22.4732 22.1484L22.8833 22.0117L23.02 21.9434L22.9004 21.8237L22.7124 21.6699L22.4732 21.4477L22.3193 21.3281V21.2939L22.251 21.2598L22.0801 21.106L21.8921 20.9521L21.3794 20.5078L21.1572 20.3198L21.0034 20.2002V20.166L20.9351 20.1318L20.7471 19.9609L20.6104 19.8413L20.4907 19.7217L20.354 19.602L20.2344 19.4482L20.1318 19.2432L20.0635 18.9697V18.645L20.1489 18.3716L20.2685 18.1836L20.3027 18.1323H20.3369V18.0981H20.3711V18.064H20.4053V18.0298L20.6104 17.8931L20.8667 17.8076L20.9351 17.7905H21.3281L21.5674 17.8589L21.7554 17.9614L21.9092 18.064V18.0981L21.9776 18.1323L22.1313 18.252V18.2861H22.1655V18.3203L22.2339 18.3545L22.2852 18.3887V18.4229L22.3535 18.457L22.5244 18.6108L22.5757 18.645V18.6792L22.644 18.7134L22.7808 18.833L22.9517 18.9868L23.0884 19.0893V19.1235L23.1567 19.1577L23.2935 19.2773L23.3276 19.2944V19.3286L23.3961 19.3628L23.4472 19.397V19.4312L23.5156 19.4653V19.4995L23.5839 19.5337L23.7377 19.6533V19.6875L23.8061 19.7217L24.0455 19.9268L24.3017 20.1489L24.353 20.1831V20.2173L24.4214 20.2515L24.4727 20.2856V20.3198L24.5411 20.354L24.6948 20.4907H24.7289L24.934 20.2002L25.088 19.9438L25.2075 19.7388L25.3612 19.397L25.5323 18.9014L25.6347 18.4057L25.686 18.0469L25.7031 17.8076V17.1924L25.669 16.7993L25.6006 16.3892L25.4809 15.9448L25.3442 15.5688L25.1904 15.227L25.0196 14.9194L24.8656 14.6802L24.7289 14.4922L24.5751 14.3042L24.3873 14.0991L24.0966 13.8086L23.9087 13.6548L23.7377 13.5181L23.4472 13.313L23.1738 13.1421L22.9175 12.9712L22.5415 12.7319L21.4648 12.0654L21.2256 11.9116L21.1572 11.8945L20.6445 12.2192H20.5933V12.2534L20.2515 12.4585L19.9097 12.6807L19.4995 12.937L19.2602 13.0908L19.0039 13.2617L18.6279 13.501L18.5938 13.4839V12.6123H17.4316L17.3975 12.5952V14.6802L17.2607 14.8682L17.0898 15.1416L16.936 15.415L16.7993 15.7398L16.7139 15.9448L16.5771 16.3892L16.4917 16.7993L16.4404 17.2607V17.876L16.4746 18.3887L16.5088 18.6792L16.4746 18.6963L16.4404 18.6792V18.645L16.3721 18.6108L16.2866 18.5425L16.2012 18.457L16.0132 18.2861L15.8765 18.1665L15.6372 17.9614L15.4492 17.7905L15.2612 17.6367L15.022 17.4145L14.8682 17.2949V17.2607L14.7998 17.2266L14.7315 17.1753V17.1411L14.6631 17.1069L14.4409 16.9018L14.2871 16.7822V16.5771L14.3896 16.0303L14.4751 15.6885L14.6118 15.227L14.7315 14.8852L14.9536 14.3896L15.1245 14.0649L15.3296 13.706L15.4492 13.5351L15.5859 13.3301L15.791 13.0566L15.9448 12.8687L16.0986 12.6977L16.2183 12.561L16.5942 12.1851L16.7822 12.0312L16.8848 11.9458H16.919V11.9116L17.1582 11.7407L17.3291 11.6211L17.5854 11.4502L18.0298 11.1938L18.3203 11.04L18.6108 10.9204L18.7476 10.852L19.0039 10.7666L19.1406 10.7153L19.4995 10.6128L19.9097 10.5273L20.4224 10.459L20.6274 10.4419Z" fill="white"/>
<path d="M15.1758 10.4419H17.2607L17.6196 10.459L17.5513 10.5102L17.1582 10.6982L16.7822 10.9033L16.4917 11.0742L16.2866 11.2109L16.0645 11.3818L15.9107 11.5015H15.8765V11.5356L15.7398 11.6553L15.5688 11.8091L15.4492 11.9458L15.2441 12.168L15.0562 12.4072L14.8852 12.6294L14.646 12.937L14.4751 13.1592L14.27 13.4326L14.1333 13.6035L13.9624 13.8257L13.7232 14.1504L13.2617 14.7656L13.0225 15.0732L12.8687 15.2783L12.6294 15.603L12.356 15.9619L12.2021 16.167L12.0313 16.3892L11.8604 16.6284L11.6211 16.936L11.4331 17.1924L11.2964 17.3804L11.1255 17.6025L10.8862 17.9273L10.6128 18.2861L10.4077 18.5596L10.2368 18.7817L10.083 18.9868L9.9463 19.1748L9.79249 19.3799L9.55323 19.7046L9.34815 19.978L9.2456 20.0976V22.439L9.22852 23.6182L9.14308 23.9087L9.02345 24.0966L8.83545 24.3017L8.64745 24.4214L8.45948 24.5068L8.30566 24.5411H7.9297L7.67333 24.4557L7.48536 24.336L7.34863 24.2163L7.21191 24.0284L7.12647 23.8404L7.0752 23.5669L7.0581 22.9687V19.2944H7.09228L7.12647 19.209L7.36573 18.9014L7.5537 18.645C7.5537 18.645 7.56992 18.6203 7.57934 18.6108C7.59645 18.5937 7.61353 18.5852 7.61353 18.5852L7.63061 18.5681L7.67333 18.5083L7.89551 18.2178L8.06641 17.9956L8.22022 17.7905L8.42529 17.5H8.45948L8.49366 17.4145L8.66456 17.1924L8.90381 16.8848L9.04052 16.6968H9.07471L9.09179 16.6284L9.33105 16.3208L9.4336 16.167H9.46778L9.50196 16.0815L9.60449 15.9448H9.63868L9.67286 15.8594L9.89502 15.5688L9.91212 15.5347H9.9463L9.98046 15.4492L10.0659 15.3296H10.1001L10.1343 15.2441L10.3735 14.9365L10.6128 14.6118L10.7666 14.4067L10.7837 14.3726H10.8179L10.8521 14.2871L11.0401 14.0479L11.1938 13.8257H11.228L11.2622 13.7573L11.416 13.5351H11.4502L11.4844 13.4497L11.6553 13.2275L11.7578 13.0908L11.7749 13.0566H11.8091L11.8433 12.9883L12.0142 12.749L12.2534 12.4414L12.2705 12.4072H12.3047L12.3389 12.3218L12.6807 11.8774L12.8003 11.7065H12.8345L12.8687 11.6382L13.0566 11.3989L13.2104 11.228L13.3301 11.1084L13.5523 10.9375L13.8257 10.7666L14.1162 10.6299L14.3896 10.5444L14.7998 10.4761L15.1758 10.4419Z" fill="white"/>
<path d="M8.01514 10.459H8.27148L8.54493 10.5274L8.78418 10.647L8.86963 10.7153L8.98926 10.8521L9.09179 10.9888L9.17726 11.1938L9.22852 11.4502V15.0562L9.10889 15.21H9.07471L9.04052 15.2954L8.85255 15.5176L8.68164 15.7398L8.45948 16.0132L8.28858 16.2354L7.5708 17.1582L7.43409 17.3291L7.28028 17.5171L7.14355 17.688L7.0752 17.7563L7.0581 16.9702V11.4502L7.09228 11.2451L7.22899 10.9717L7.34862 10.8008L7.53662 10.647L7.72462 10.5444L7.9297 10.4761L8.01514 10.459Z" fill="white"/>
<mask id="mask0_154_221" style="mask-type:luminance" maskUnits="userSpaceOnUse" x="38" y="10" width="85" height="20">
<path d="M122.967 10.5H38.7333V29.6333H122.967V10.5Z" fill="white"/>
</mask>
<g mask="url(#mask0_154_221)">
<path d="M39.704 25.1998C39.4427 25.1998 39.2124 25.1064 39.0133 24.9198C38.8267 24.7331 38.7333 24.5028 38.7333 24.2291V11.5918C38.7333 11.318 38.8267 11.0878 39.0133 10.9011C39.2124 10.7144 39.4427 10.6211 39.704 10.6211C39.9777 10.6211 40.208 10.7144 40.3947 10.9011C40.5813 11.0878 40.6747 11.318 40.6747 11.5918V17.1918L46.8533 11.0131C47.0027 10.8638 47.1396 10.7642 47.264 10.7144C47.3884 10.6522 47.519 10.6211 47.656 10.6211C47.967 10.6211 48.191 10.7144 48.328 10.9011C48.465 11.0878 48.5147 11.3118 48.4773 11.5731C48.44 11.822 48.3217 12.0522 48.1227 12.2638L43.3627 17.0424L48.216 23.6504C48.3653 23.8621 48.4276 24.0921 48.4027 24.3411C48.3777 24.5775 48.2907 24.7828 48.1413 24.9571C47.992 25.1188 47.793 25.1998 47.544 25.1998C47.1956 25.1998 46.928 25.0628 46.7413 24.7891L42.0187 18.3864L40.6747 19.7304V24.2291C40.6747 24.5028 40.5813 24.7331 40.3947 24.9198C40.208 25.1064 39.9777 25.1998 39.704 25.1998ZM53.792 25.2931C52.9333 25.2931 52.1619 25.1127 51.4775 24.7518C50.8055 24.3784 50.2703 23.8371 49.872 23.1278C49.4863 22.4184 49.2933 21.5473 49.2933 20.5144V15.9224C49.2933 15.6487 49.3806 15.4247 49.5546 15.2504C49.7413 15.0638 49.9716 14.9704 50.2455 14.9704C50.5192 14.9704 50.7432 15.0638 50.9173 15.2504C51.104 15.4247 51.1973 15.6487 51.1973 15.9224V20.5144C51.1973 21.2113 51.328 21.79 51.5893 22.2504C51.8506 22.6984 52.2055 23.0344 52.6535 23.2584C53.1015 23.4701 53.6053 23.5758 54.1653 23.5758C54.7006 23.5758 55.1733 23.4701 55.584 23.2584C56.0072 23.0469 56.3432 22.7607 56.592 22.3998C56.8409 22.0389 56.9653 21.6344 56.9653 21.1864H58.1413C58.1413 21.958 57.9486 22.6549 57.5629 23.2771C57.1895 23.8994 56.6729 24.3908 56.0135 24.7518C55.3663 25.1127 54.6259 25.2931 53.792 25.2931ZM57.9173 25.1998C57.6436 25.1998 57.4133 25.1127 57.2266 24.9384C57.0526 24.7518 56.9653 24.5215 56.9653 24.2478V15.9224C56.9653 15.6362 57.0526 15.406 57.2266 15.2318C57.4133 15.0575 57.6436 14.9704 57.9173 14.9704C58.2036 14.9704 58.4339 15.0575 58.608 15.2318C58.7823 15.406 58.8695 15.6362 58.8695 15.9224V24.2478C58.8695 24.5215 58.7823 24.7518 58.608 24.9384C58.4339 25.1127 58.2036 25.1998 57.9173 25.1998ZM65.0041 25.1998C64.3818 25.1998 63.8218 25.0441 63.3241 24.7331C62.8262 24.4095 62.4342 23.9741 62.1481 23.4264C61.8618 22.8789 61.7188 22.2629 61.7188 21.5784V12.6744C61.7188 12.4007 61.8058 12.1767 61.9801 12.0024C62.1542 11.8282 62.3782 11.7411 62.6521 11.7411C62.9258 11.7411 63.1498 11.8282 63.3241 12.0024C63.4982 12.1767 63.5854 12.4007 63.5854 12.6744V21.5784C63.5854 22.0762 63.7222 22.4931 63.9961 22.8291C64.2698 23.1651 64.6058 23.3331 65.0041 23.3331H65.6388C65.8628 23.3331 66.0494 23.4201 66.1988 23.5944C66.3605 23.7687 66.4414 23.9927 66.4414 24.2664C66.4414 24.5401 66.3355 24.7641 66.1241 24.9384C65.9248 25.1127 65.6635 25.1998 65.3401 25.1998H65.0041ZM60.8601 16.9678C60.5988 16.9678 60.3871 16.8931 60.2254 16.7438C60.0635 16.5944 59.9828 16.4078 59.9828 16.1838C59.9828 15.9349 60.0635 15.7358 60.2254 15.5864C60.3871 15.4371 60.5988 15.3624 60.8601 15.3624H65.1721C65.4334 15.3624 65.6448 15.4371 65.8068 15.5864C65.9685 15.7358 66.0494 15.9349 66.0494 16.1838C66.0494 16.4078 65.9685 16.5944 65.8068 16.7438C65.6448 16.8931 65.4334 16.9678 65.1721 16.9678H60.8601ZM72.1415 25.2931C71.2829 25.2931 70.5112 25.1127 69.8269 24.7518C69.1549 24.3784 68.6198 23.8371 68.2215 23.1278C67.8358 22.4184 67.6429 21.5473 67.6429 20.5144V15.9224C67.6429 15.6487 67.7299 15.4247 67.9042 15.2504C68.0909 15.0638 68.3212 14.9704 68.5949 14.9704C68.8686 14.9704 69.0926 15.0638 69.2669 15.2504C69.4535 15.4247 69.5469 15.6487 69.5469 15.9224V20.5144C69.5469 21.2113 69.6775 21.79 69.9389 22.2504C70.2002 22.6984 70.5549 23.0344 71.0029 23.2584C71.4509 23.4701 71.9549 23.5758 72.5149 23.5758C73.0499 23.5758 73.5229 23.4701 73.9335 23.2584C74.3566 23.0469 74.6926 22.7607 74.9415 22.3998C75.1905 22.0389 75.3149 21.6344 75.3149 21.1864H76.4909C76.4909 21.958 76.2979 22.6549 75.9122 23.2771C75.5389 23.8994 75.0225 24.3908 74.3629 24.7518C73.7158 25.1127 72.9752 25.2931 72.1415 25.2931ZM76.2669 25.1998C75.9932 25.1998 75.7629 25.1127 75.5762 24.9384C75.4019 24.7518 75.3149 24.5215 75.3149 24.2478V15.9224C75.3149 15.6362 75.4019 15.406 75.5762 15.2318C75.7629 15.0575 75.9932 14.9704 76.2669 14.9704C76.5532 14.9704 76.7832 15.0575 76.9575 15.2318C77.1318 15.406 77.2189 15.6362 77.2189 15.9224V24.2478C77.2189 24.5215 77.1318 24.7518 76.9575 24.9384C76.7832 25.1127 76.5532 25.1998 76.2669 25.1998ZM93.0414 25.2184C92.7677 25.2184 92.5374 25.1314 92.3508 24.9571C92.1767 24.7704 92.0894 24.5401 92.0894 24.2664V18.9278C92.0894 18.1438 91.8967 17.5651 91.5108 17.1918C91.1251 16.806 90.6211 16.6131 89.9988 16.6131C89.3517 16.6131 88.8167 16.8371 88.3934 17.2851C87.9828 17.7331 87.7774 18.3055 87.7774 19.0024H86.2281C86.2281 18.1935 86.4024 17.4842 86.7508 16.8744C87.0994 16.2522 87.5847 15.7669 88.2068 15.4184C88.8414 15.07 89.5634 14.8958 90.3721 14.8958C91.0814 14.8958 91.71 15.0513 92.2574 15.3624C92.8051 15.6735 93.2281 16.134 93.5268 16.7438C93.838 17.3411 93.9934 18.0691 93.9934 18.9278V24.2664C93.9934 24.5401 93.9064 24.7704 93.7321 24.9571C93.558 25.1314 93.3277 25.2184 93.0414 25.2184ZM80.5908 25.2184C80.3171 25.2184 80.0868 25.1314 79.9001 24.9571C79.726 24.7704 79.6388 24.5401 79.6388 24.2664V15.9598C79.6388 15.6735 79.726 15.4433 79.9001 15.2691C80.0868 15.0949 80.3171 15.0078 80.5908 15.0078C80.8771 15.0078 81.1074 15.0949 81.2814 15.2691C81.4557 15.4433 81.5428 15.6735 81.5428 15.9598V24.2664C81.5428 24.5401 81.4557 24.7704 81.2814 24.9571C81.1074 25.1314 80.8771 25.2184 80.5908 25.2184ZM86.8254 25.2184C86.5517 25.2184 86.3214 25.1314 86.1348 24.9571C85.9607 24.7704 85.8734 24.5401 85.8734 24.2664V18.9278C85.8734 18.1438 85.6807 17.5651 85.2948 17.1918C84.9091 16.806 84.4051 16.6131 83.7828 16.6131C83.1357 16.6131 82.6007 16.8371 82.1774 17.2851C81.7544 17.7331 81.5428 18.3055 81.5428 19.0024H80.3668C80.3668 18.1935 80.5287 17.4842 80.8521 16.8744C81.1757 16.2522 81.6237 15.7669 82.1961 15.4184C82.7687 15.07 83.422 14.8958 84.1561 14.8958C84.8654 14.8958 85.494 15.0513 86.0414 15.3624C86.5891 15.6735 87.0121 16.134 87.3108 16.7438C87.622 17.3411 87.7774 18.0691 87.7774 18.9278V24.2664C87.7774 24.5401 87.6904 24.7704 87.5161 24.9571C87.342 25.1314 87.1117 25.2184 86.8254 25.2184ZM101.357 25.2744C100.387 25.2744 99.5153 25.0504 98.7439 24.6024C97.9722 24.1421 97.3625 23.5198 96.9145 22.7358C96.4665 21.9518 96.2362 21.0682 96.2239 20.0851V11.5731C96.2239 11.2869 96.3109 11.0567 96.4852 10.8824C96.6719 10.7082 96.9019 10.6211 97.1759 10.6211C97.4619 10.6211 97.6922 10.7082 97.8665 10.8824C98.0406 11.0567 98.1279 11.2869 98.1279 11.5731V16.6131C98.5633 16.0904 99.0859 15.6798 99.6959 15.3811C100.318 15.07 100.996 14.9144 101.731 14.9144C102.639 14.9144 103.454 15.1447 104.176 15.6051C104.898 16.0531 105.464 16.6691 105.875 17.4531C106.298 18.2247 106.509 19.102 106.509 20.0851C106.509 21.0682 106.279 21.9518 105.819 22.7358C105.371 23.5198 104.761 24.1421 103.989 24.6024C103.218 25.0504 102.34 25.2744 101.357 25.2744ZM101.357 23.5944C101.992 23.5944 102.558 23.4451 103.056 23.1464C103.554 22.8353 103.946 22.4122 104.232 21.8771C104.531 21.342 104.68 20.7447 104.68 20.0851C104.68 19.4131 104.531 18.8158 104.232 18.2931C103.946 17.7704 103.554 17.3598 103.056 17.0611C102.558 16.75 101.992 16.5944 101.357 16.5944C100.735 16.5944 100.169 16.75 99.6585 17.0611C99.1606 17.3598 98.7686 17.7704 98.4825 18.2931C98.1962 18.8158 98.0532 19.4131 98.0532 20.0851C98.0532 20.7447 98.1962 21.342 98.4825 21.8771C98.7686 22.4122 99.1606 22.8353 99.6585 23.1464C100.169 23.4451 100.735 23.5944 101.357 23.5944ZM109.554 25.1998C109.28 25.1998 109.05 25.1127 108.864 24.9384C108.689 24.7518 108.602 24.5215 108.602 24.2478V15.9411C108.602 15.6549 108.689 15.4247 108.864 15.2504C109.05 15.0762 109.28 14.9891 109.554 14.9891C109.84 14.9891 110.071 15.0762 110.245 15.2504C110.419 15.4247 110.506 15.6549 110.506 15.9411V24.2478C110.506 24.5215 110.419 24.7518 110.245 24.9384C110.071 25.1127 109.84 25.1998 109.554 25.1998ZM109.554 13.3278C109.218 13.3278 108.926 13.2095 108.677 12.9731C108.44 12.7242 108.322 12.4318 108.322 12.0958C108.322 11.7598 108.44 11.4736 108.677 11.2371C108.926 10.9882 109.218 10.8638 109.554 10.8638C109.89 10.8638 110.176 10.9882 110.413 11.2371C110.662 11.4736 110.786 11.7598 110.786 12.0958C110.786 12.4318 110.662 12.7242 110.413 12.9731C110.176 13.2095 109.89 13.3278 109.554 13.3278ZM121.944 29.5678C121.658 29.5678 121.422 29.4744 121.235 29.2878C121.061 29.1135 120.974 28.8895 120.974 28.6158V23.5758C120.551 24.0984 120.028 24.5154 119.406 24.8264C118.783 25.1251 118.105 25.2744 117.371 25.2744C116.463 25.2744 115.647 25.0504 114.926 24.6024C114.204 24.1421 113.631 23.5261 113.208 22.7544C112.798 21.9704 112.592 21.0869 112.592 20.1038C112.592 19.1207 112.816 18.2371 113.264 17.4531C113.725 16.6691 114.341 16.0531 115.112 15.6051C115.896 15.1447 116.774 14.9144 117.744 14.9144C118.715 14.9144 119.586 15.1447 120.358 15.6051C121.129 16.0531 121.739 16.6691 122.187 17.4531C122.647 18.2371 122.878 19.1207 122.878 20.1038V28.6158C122.878 28.8895 122.791 29.1135 122.616 29.2878C122.442 29.4744 122.218 29.5678 121.944 29.5678ZM117.744 23.5944C118.379 23.5944 118.945 23.4451 119.443 23.1464C119.941 22.8353 120.333 22.4184 120.619 21.8958C120.905 21.3607 121.048 20.7633 121.048 20.1038C121.048 19.4318 120.905 18.8344 120.619 18.3118C120.333 17.7767 119.941 17.3598 119.443 17.0611C118.945 16.75 118.379 16.5944 117.744 16.5944C117.122 16.5944 116.556 16.75 116.046 17.0611C115.548 17.3598 115.15 17.7767 114.851 18.3118C114.565 18.8344 114.422 19.4318 114.422 20.1038C114.422 20.7633 114.565 21.3607 114.851 21.8958C115.15 22.4184 115.548 22.8353 116.046 23.1464C116.556 23.4451 117.122 23.5944 117.744 23.5944Z" fill="black"/>
</g>
</g>
<defs>
<clipPath id="clip0_154_221">
<rect width="122.967" height="35" fill="white"/>
</clipPath>
</defs>
</svg>
