<svg width="913" height="573" viewBox="0 0 913 573" fill="none" xmlns="http://www.w3.org/2000/svg">
<path d="M187 214.5L223.91 156.499C236.515 136.69 252.865 119.531 272.042 105.983L324.934 68.6164C337.107 60.0166 351.286 54.689 366.11 53.1448L384.95 51.1823C389.226 50.7368 393.285 49.0721 396.642 46.3861L401.126 42.7994C402.964 41.3287 404.134 39.1802 404.371 36.8378L405.671 24.0016C406.265 18.1368 414.333 17.0181 416.5 22.5V22.5L422 37V37C423.64 40.8943 429.03 41.226 431.135 37.5621L439.5 23L448.064 7.15627C448.903 5.60474 450.707 4.845 452.403 5.32952V5.32952C452.798 5.44241 453.172 5.61933 453.51 5.85323L454.398 6.46774C457.536 8.64056 459.215 12.3713 458.761 16.1614L458 22.5L457.25 34.4951C457.111 36.725 458.771 38.661 460.996 38.8633V38.8633C461.967 38.9516 462.938 38.6932 463.737 38.1341L466.114 36.4699C467.034 35.8265 468.038 35.3144 469.099 34.9486L472.512 33.7718C478.73 31.6277 485.399 31.1431 491.862 32.3657L499.721 33.8526C500.233 33.9496 500.717 34.1628 501.134 34.4758L501.341 34.6306C502.071 35.1779 502.5 36.0368 502.5 36.949V36.949C502.5 37.918 502.016 38.8228 501.21 39.3603L500.275 39.983C499.766 40.3226 499.347 40.7808 499.054 41.3182V41.3182C497.806 43.6055 499.192 46.4395 501.763 46.8593L519.444 49.746C520.479 49.915 521.495 50.1822 522.479 50.5443L564.266 65.9187C570.747 68.3032 577.391 70.2183 584.146 71.6492V71.6492C639.717 83.4204 683.173 126.763 695.09 182.303L709.62 250.018C734.218 364.659 644.692 471.959 527.498 468.297L391.899 464.059C379.996 463.687 368.158 462.138 356.56 459.435L275.985 440.652C243.842 433.159 215.69 413.856 197.117 386.573L141.693 305.159C139.245 301.563 139.674 296.705 142.665 293.548V293.548C147.877 288.047 144.625 278.85 137.09 278.053V278.053C127.809 277.071 125.785 264.454 134.293 260.618L160.234 248.923C163.025 247.665 165.421 245.67 167.164 243.152L187 214.5Z" fill="white"/>
<path d="M552.5 308.592C552.5 336.207 581.386 345.5 609 345.5C636.615 345.5 661.5 323.592 658 298.092C652.401 257.301 618.313 275.583 620 275.592C592.386 275.592 552.5 280.978 552.5 308.592Z" fill="url(#paint0_linear_837_631)"/>
<path d="M534.5 126.5C532.85 127.82 531.2 129.14 529.5 130.5C532.452 130.688 532.452 130.688 534.812 129.562C540.393 127.356 545.97 127.368 551.875 127.437C552.611 127.442 553.347 127.446 554.105 127.451C555.904 127.463 557.702 127.481 559.5 127.5C559.5 128.16 559.5 128.82 559.5 129.5C558.51 129.83 557.52 130.16 556.5 130.5C558.379 130.807 558.379 130.807 560.297 131.121C561.948 131.393 563.599 131.665 565.25 131.937C566.075 132.072 566.9 132.207 567.75 132.346C568.549 132.478 569.348 132.61 570.172 132.746C570.905 132.866 571.638 132.987 572.393 133.111C574.456 133.492 576.471 133.969 578.5 134.5C578.17 135.49 577.84 136.48 577.5 137.5C582.12 138.82 586.74 140.14 591.5 141.5C591.17 142.49 590.84 143.48 590.5 144.5C591.175 144.754 591.851 145.008 592.547 145.269C593.439 145.614 594.331 145.958 595.25 146.312C596.132 146.649 597.013 146.985 597.922 147.332C600.43 148.468 602.373 149.765 604.5 151.5C603.84 151.83 603.18 152.16 602.5 152.5C603.998 153.44 603.998 153.44 605.527 154.398C606.831 155.224 608.134 156.049 609.437 156.875C610.097 157.287 610.756 157.7 611.435 158.125C616.387 161.273 616.387 161.273 617.5 163.5C614.53 162.84 611.56 162.18 608.5 161.5C609.236 161.936 609.972 162.371 610.73 162.82C616.288 166.212 620.725 169.163 624.5 174.5C623.18 174.5 621.86 174.5 620.5 174.5C621.387 175.153 621.387 175.153 622.293 175.82C627.008 179.374 630.937 182.788 634.5 187.5C634.17 188.16 633.84 188.82 633.5 189.5C632.18 189.17 630.86 188.84 629.5 188.5C629.959 188.947 630.418 189.395 630.891 189.855C634.335 193.25 637.572 196.636 640.5 200.5C640.17 201.16 639.84 201.82 639.5 202.5C640.324 204.4 640.324 204.4 641.5 206.5C643.5 211.167 643.5 211.167 643.5 213.5C644.23 215.789 645.038 218.045 645.844 220.309C646.5 222.5 646.5 222.5 646.5 225.5C646.957 227.075 647.461 228.638 648 230.187C648.418 231.4 648.418 231.4 648.844 232.637C649.06 233.252 649.277 233.866 649.5 234.5C648.51 234.17 647.52 233.84 646.5 233.5C646.872 234.271 647.245 235.042 647.629 235.836C648.102 236.839 648.575 237.842 649.062 238.875C649.538 239.873 650.014 240.87 650.504 241.898C650.833 242.757 651.161 243.615 651.5 244.5C651.17 245.16 650.84 245.82 650.5 246.5C649.84 245.18 649.18 243.86 648.5 242.5C648.5 245.612 648.956 248.441 649.5 251.5C648.84 251.5 648.18 251.5 647.5 251.5C647.83 253.15 648.16 254.8 648.5 256.5C647.84 256.5 647.18 256.5 646.5 256.5C647.49 258.975 647.49 258.975 648.5 261.5C647.861 261.17 647.221 260.84 646.562 260.5C644.732 259.427 644.732 259.427 643.5 259.5C645.48 264.945 645.48 264.945 647.5 270.5C643.5 268.5 643.5 268.5 641.5 266.5C642.16 267.49 642.82 268.48 643.5 269.5C644.753 275.994 644.753 275.994 643.5 278.5C642.84 278.5 642.18 278.5 641.5 278.5C641.17 279.82 640.84 281.14 640.5 282.5C638.19 279.86 635.88 277.22 633.5 274.5C635.15 278.13 636.8 281.76 638.5 285.5C637.84 285.5 637.18 285.5 636.5 285.5C636.17 286.16 635.84 286.82 635.5 287.5C633.19 285.52 630.88 283.54 628.5 281.5C630.48 284.47 632.46 287.44 634.5 290.5C631.36 288.93 628.64 287.33 625.75 285.375C624.951 284.836 624.151 284.297 623.328 283.742C622.725 283.332 622.121 282.922 621.5 282.5C621.994 283.103 622.487 283.706 622.996 284.328C623.637 285.127 624.277 285.926 624.937 286.75C625.895 287.933 625.895 287.933 626.871 289.141C628.405 291.362 629.071 292.867 629.5 295.5C628.51 295.17 627.52 294.84 626.5 294.5C627.16 295.82 627.82 297.14 628.5 298.5C625.41 297.566 622.746 296.654 620 294.937C617.149 293.298 614.745 292.877 611.5 292.5C613.48 294.81 615.46 297.12 617.5 299.5C615.613 299.531 615.613 299.531 613.687 299.562C612.98 299.574 612.272 299.586 611.543 299.598C609.5 299.5 609.5 299.5 606.5 298.5C608.81 300.81 611.12 303.12 613.5 305.5C609.324 306.892 607.365 305.323 603.5 303.5C604.16 304.49 604.82 305.48 605.5 306.5C603.85 305.84 602.2 305.18 600.5 304.5C600.407 305.962 600.407 305.962 602.5 308.5C598 307 598 307 593.5 305.5C594.82 306.82 596.14 308.14 597.5 309.5C595.19 308.84 592.88 308.18 590.5 307.5C590.83 308.16 591.16 308.82 591.5 309.5C587.444 309.032 584.034 308.62 580.5 306.5C580.83 307.16 581.16 307.82 581.5 308.5C579.52 307.84 577.54 307.18 575.5 306.5C577.15 308.15 578.8 309.8 580.5 311.5C579.84 311.83 579.18 312.16 578.5 312.5C576.039 311.355 576.039 311.355 573.125 309.687C569.938 307.879 566.78 306.14 563.5 304.5C567.46 307.965 567.46 307.965 571.5 311.5C567.966 312.678 567.051 312.254 563.613 311.066C562.675 310.747 561.738 310.428 560.771 310.1C559.795 309.757 558.818 309.415 557.812 309.062C556.33 308.555 556.33 308.555 554.818 308.037C552.376 307.199 549.937 306.353 547.5 305.5C549.81 306.82 552.12 308.14 554.5 309.5C548.445 311.518 541.54 307.006 536.033 304.277C530.479 301.431 524.978 298.488 519.5 295.5C520.16 296.49 520.82 297.48 521.5 298.5C521.5 299.16 521.5 299.82 521.5 300.5C517.596 299.138 514.808 297.374 511.625 294.75C510.755 294.033 509.885 293.316 508.988 292.578C508.167 291.892 507.346 291.206 506.5 290.5C505.854 289.979 505.208 289.458 504.543 288.922C489 276.15 478.468 257.451 472.5 238.5C472.203 237.592 471.907 236.685 471.601 235.75C470.843 233.345 470.156 230.934 469.5 228.5C469.191 227.444 469.191 227.444 468.875 226.367C466.604 217.315 467.325 207.761 467.5 198.5C467.83 198.5 468.16 198.5 468.5 198.5C468.55 197.874 468.6 197.249 468.652 196.604C468.883 193.777 469.129 190.951 469.375 188.125C469.454 187.14 469.532 186.155 469.613 185.141C469.739 183.729 469.739 183.729 469.867 182.289C469.94 181.42 470.014 180.55 470.089 179.655C470.5 177.5 470.5 177.5 472.5 175.5C472.83 176.82 473.16 178.14 473.5 179.5C473.765 178.284 474.031 177.069 474.305 175.816C474.661 174.232 475.018 172.647 475.375 171.062C475.549 170.26 475.723 169.458 475.902 168.631C476.371 166.572 476.93 164.533 477.5 162.5C478.49 162.005 478.49 162.005 479.5 161.5C479.83 163.15 480.16 164.8 480.5 166.5C480.658 165.871 480.817 165.242 480.98 164.594C482.638 158.512 484.864 153.645 488.5 148.5C489.5 150.5 489.5 150.5 489.5 153.5C490.068 152.631 490.637 151.762 491.223 150.867C495.444 144.528 499.319 139.103 505.5 134.5C505.995 136.48 505.995 136.48 506.5 138.5C509.788 136.956 512.727 135.071 515.75 133.062C521.598 129.32 527.289 125.824 534.5 126.5Z" fill="#030303"/>
<path d="M324.5 306.501C324.5 334.115 294.114 351.001 266.5 351.001C238.886 351.001 215.5 321.5 219 296.001C224.599 255.21 258.687 273.492 257 273.5C284.614 273.5 324.5 278.886 324.5 306.501Z" fill="url(#paint1_linear_837_631)"/>
<path d="M346.5 128.5C352.951 129.663 358.32 131.608 364.215 134.477C366.387 135.636 366.387 135.636 368.5 135.5C366.52 133.025 366.52 133.025 364.5 130.5C368.588 131.93 371.717 133.924 375.188 136.5C376.14 137.201 377.093 137.902 378.074 138.625C380.5 140.5 380.5 140.5 382.5 142.5C382.17 140.85 381.84 139.2 381.5 137.5C382.16 137.5 382.82 137.5 383.5 137.5C385.288 139.634 386.969 141.768 388.625 144C389.093 144.62 389.561 145.24 390.043 145.879C391.201 147.415 392.351 148.957 393.5 150.5C394.16 149.84 394.82 149.18 395.5 148.5C399.205 154.351 402.307 159.921 404.5 166.5C404.83 165.51 405.16 164.52 405.5 163.5C406.16 163.5 406.82 163.5 407.5 163.5C409.617 170.502 411.04 177.193 411.5 184.5C411.83 184.5 412.16 184.5 412.5 184.5C412.83 189.78 413.16 195.06 413.5 200.5C413.83 200.5 414.16 200.5 414.5 200.5C414.927 218.181 408.315 236.891 400.5 252.5C400.1 253.37 399.701 254.24 399.289 255.137C396.143 261.862 392.043 267.645 387.5 273.5C387.018 274.138 386.536 274.776 386.039 275.434C381.621 280.963 376.074 285.192 370.5 289.5C369.776 290.075 369.051 290.65 368.305 291.242C362.567 295.54 356.326 298.851 350 302.188C349.122 302.651 348.243 303.115 347.338 303.593C332.063 311.5 332.063 311.5 327.5 311.5C327.5 310.51 327.5 309.52 327.5 308.5C325.025 310.975 325.025 310.975 322.5 313.5C321.84 313.17 321.18 312.84 320.5 312.5C319.157 312.794 317.823 313.128 316.5 313.5C315.84 313.5 315.18 313.5 314.5 313.5C313.51 314.16 312.52 314.82 311.5 315.5C311.665 314.696 311.83 313.891 312 313.062C312.532 310.772 312.532 310.772 312.5 309.5C310.19 311.48 307.88 313.46 305.5 315.5C305.83 314.18 306.16 312.86 306.5 311.5C305.51 312.49 304.52 313.48 303.5 314.5C302.84 314.17 302.18 313.84 301.5 313.5C300.51 314.49 299.52 315.48 298.5 316.5C298.17 315.51 297.84 314.52 297.5 313.5C295.52 314.49 295.52 314.49 293.5 315.5C293.5 314.84 293.5 314.18 293.5 313.5C292.18 313.83 290.86 314.16 289.5 314.5C289.5 313.18 289.5 311.86 289.5 310.5C287.52 312.48 287.52 312.48 285.5 314.5C285.83 312.85 286.16 311.2 286.5 309.5C284.52 311.48 284.52 311.48 282.5 313.5C281.84 313.17 281.18 312.84 280.5 312.5C277.711 311.395 277.711 311.395 275.5 311.5C275.83 309.85 276.16 308.2 276.5 306.5C274.85 307.49 273.2 308.48 271.5 309.5C271.83 307.85 272.16 306.2 272.5 304.5C270.279 304.5 268.141 307.153 266.5 308.5C266.995 305.53 266.995 305.53 267.5 302.5C264.53 304.48 264.53 304.48 261.5 306.5C261.665 305.881 261.83 305.262 262 304.625C262.576 302.539 262.576 302.539 262.5 300.5C260.025 302.48 260.025 302.48 257.5 304.5C258.087 300.979 258.856 298.787 260.5 295.5C258.19 297.48 255.88 299.46 253.5 301.5C254.16 299.52 254.82 297.54 255.5 295.5C255.046 295.995 254.593 296.49 254.125 297C252.5 298.5 252.5 298.5 250.5 298.5C251.16 296.52 251.82 294.54 252.5 292.5C251.881 292.995 251.262 293.49 250.625 294C248.5 295.5 248.5 295.5 246.5 295.5C247.625 292.528 248.723 290.166 250.5 287.5C248.829 288.49 248.829 288.49 247.125 289.5C243.75 291.5 243.75 291.5 241.5 291.5C242.704 289.006 243.954 286.819 245.5 284.5C244.716 284.995 243.933 285.49 243.125 286C240.5 287.5 240.5 287.5 238.5 287.5C239.902 283.039 242.098 280.653 245.5 277.5C246.49 276.51 247.48 275.52 248.5 274.5C243.55 276.48 238.6 278.46 233.5 280.5C233.5 279.84 233.5 279.18 233.5 278.5C234.16 278.17 234.82 277.84 235.5 277.5C236.53 275.852 237.531 274.185 238.5 272.5C238.83 272.17 239.16 271.84 239.5 271.5C238.18 272.49 236.86 273.48 235.5 274.5C234.84 274.17 234.18 273.84 233.5 273.5C235.15 271.85 236.8 270.2 238.5 268.5C237.902 268.83 237.304 269.16 236.688 269.5C234.5 270.5 234.5 270.5 231.5 270.5C233.81 267.86 236.12 265.22 238.5 262.5C237.716 263.016 236.933 263.531 236.125 264.062C235.259 264.537 234.392 265.011 233.5 265.5C232.84 265.17 232.18 264.84 231.5 264.5C232.49 263.51 233.48 262.52 234.5 261.5C233.51 261.83 232.52 262.16 231.5 262.5C232.85 258.081 234.761 256.157 238.5 253.5C234.045 253.995 234.045 253.995 229.5 254.5C231.94 249.162 235.569 247.329 240.5 244.5C236.045 245.49 236.045 245.49 231.5 246.5C232.16 245.18 232.82 243.86 233.5 242.5C232.84 242.17 232.18 241.84 231.5 241.5C234.14 239.52 236.78 237.54 239.5 235.5C237.52 235.995 237.52 235.995 235.5 236.5C237.167 234.833 238.833 233.167 240.5 231.5C239.18 231.17 237.86 230.84 236.5 230.5C236.789 229.984 237.077 229.469 237.375 228.938C238.654 226.442 238.654 226.442 239.062 223.25C240.267 218.555 243.936 216.188 247.602 213.297C248.541 212.407 248.541 212.407 249.5 211.5C249.5 210.51 249.5 209.52 249.5 208.5C252.5 206.312 252.5 206.312 255.5 204.5C254.18 204.17 252.86 203.84 251.5 203.5C254.47 200.53 257.44 197.56 260.5 194.5C259.51 194.5 258.52 194.5 257.5 194.5C258.882 191.29 260.424 189.451 263.125 187.25C263.757 186.729 264.388 186.208 265.039 185.672C265.762 185.092 265.762 185.092 266.5 184.5C265.51 184.17 264.52 183.84 263.5 183.5C267.987 179.531 272.578 175.916 277.5 172.5C276.51 172.17 275.52 171.84 274.5 171.5C276.062 170.296 277.625 169.091 279.188 167.887C280.844 166.455 280.844 166.455 280.5 163.5C285.12 160.86 289.74 158.22 294.5 155.5C293.18 155.17 291.86 154.84 290.5 154.5C295.78 151.86 301.06 149.22 306.5 146.5C303.53 146.83 300.56 147.16 297.5 147.5C304.963 140.037 317.121 137.515 327.363 136.746C329.55 136.618 329.55 136.618 331.5 135.5C329.52 134.84 327.54 134.18 325.5 133.5C332.109 129.094 342.865 131.278 350.5 132.5C349.18 131.18 347.86 129.86 346.5 128.5Z" fill="#040303"/>
<path d="M625.897 114.5C631.461 119.142 636.652 124.062 641.772 129.188C642.568 129.985 643.365 130.782 644.185 131.604C649.83 137.308 655.006 143.133 659.897 149.5C661.146 151.021 662.396 152.542 663.647 154.062C675.075 168.434 685.116 183.363 693.655 199.613C712.212 236.429 712.212 236.429 744.897 259.5C744.897 260.16 744.897 260.82 744.897 261.5C737.229 262.274 732.676 261.501 726.479 256.812C725.957 256.379 725.435 255.946 724.897 255.5C728.557 261.442 732.653 266.558 737.385 271.676C742.168 277.054 746.513 282.794 750.897 288.5C751.497 289.255 752.098 290.011 752.717 290.789C753.897 292.5 753.897 292.5 753.897 294.5C751.071 293.206 748.973 291.806 746.709 289.688C744.021 287.3 741.32 285.508 738.158 283.801C737.358 283.365 736.557 282.93 735.731 282.482C735.126 282.158 734.521 281.834 733.897 281.5C734.174 281.988 734.45 282.475 734.735 282.978C752.912 315.099 752.342 316.814 750.897 324.5C751.372 325.323 750.435 323.701 750.897 324.5C750.897 324.5 748.003 330.645 748.084 343.688C748.098 344.733 748.113 345.778 748.127 346.855C747.897 349.5 747.897 349.5 745.897 351.5C745.897 351.5 739.149 358.211 739.147 357.938C739.16 359.75 739.16 359.75 739.174 361.599C739.153 367.918 738.784 373.458 736.897 379.5C735.577 379.83 734.257 380.16 732.897 380.5C732.567 378.52 732.237 376.54 731.897 374.5C731.794 375.428 731.691 376.356 731.584 377.312C730.897 380.5 727.397 383 724.397 386C724.737 385.32 724.067 386.66 724.397 386C723.407 386.99 712.917 378.48 711.897 379.5L669.397 401C669.397 400.66 669.397 401.33 669.397 401C669.397 401 644.854 407.403 640.897 410.5C643.537 410.17 646.177 409.84 648.897 409.5C647.897 410.5 646.897 411.5 645.897 412.5C644.69 413.737 644.69 413.737 643.459 415C640.897 417.5 640.897 417.5 638.772 419C636.453 420.855 635.298 422.907 633.897 425.5C635.547 424.84 637.197 424.18 638.897 423.5C635.897 427.5 632.897 431.5 629.897 435.5C631.217 434.51 632.537 433.52 633.897 432.5C632.148 436.095 630.254 439.591 628.272 443.062C627.397 458 592.806 461.587 581.397 464C585.372 463.001 577.387 464.852 581.397 464C527.397 480.5 432.5 472.5 432.5 472.5C439.799 472.479 425.202 472.456 432.5 472.5C440.563 472.528 424.437 472.522 432.5 472.5C435.857 472.49 429.143 472.489 432.5 472.5C400.291 472.57 348.397 480 294.397 466C295.132 466.128 293.683 465.875 294.397 466C268.897 435 284.06 438.2 281 436.5C281 436.5 272.457 428.54 269.397 426.5C268.717 427.18 270.057 425.84 269.397 426.5C268.427 426.356 258.896 414.149 257.897 414C260.834 414.438 257.567 413.34 257.897 414C257.897 414.68 257.897 413.34 257.897 414C256.537 414.34 259.217 413.67 257.897 414C257.557 414.68 258.227 413.34 257.897 414C257.897 414 288.194 413.998 291.334 416.312C306.102 426.845 322.35 435.154 338.896 442.5C339.628 442.829 340.36 443.157 341.115 443.496C351.17 447.974 361.14 451.169 371.896 453.5C371.377 453.064 370.857 452.629 370.322 452.18C366.983 449.328 363.787 446.547 361.021 443.125C359.165 440.462 359.165 440.462 356.896 439.5C356.896 438.84 356.896 438.18 356.896 437.5C360.236 438.086 363.158 438.917 366.271 440.25C376.698 444.479 387.114 447.718 398.084 450.188C398.954 450.39 399.825 450.592 400.721 450.801C418.682 454.674 436.979 454.873 455.271 454.812C456.412 454.811 457.552 454.809 458.727 454.807C484.753 454.737 509.561 452.777 534.897 446.5C536.366 446.153 537.836 445.808 539.307 445.465C575.697 436.845 611.623 422.019 640.897 398.5C641.746 397.844 642.596 397.188 643.471 396.512C650.152 391.316 656.346 385.639 662.49 379.828C663.64 378.743 664.8 377.668 665.963 376.598C685.927 357.653 692.715 334.023 693.897 307.5C696.782 310.931 699.048 314.354 701.147 318.312C701.668 319.288 702.188 320.264 702.725 321.27C703.305 322.374 703.305 322.374 703.897 323.5C703.172 313.769 702.394 305.001 698.116 296.078C696.792 293.278 695.829 290.451 694.897 287.5C699.208 289.818 702.535 292.804 705.959 296.25C706.476 296.75 706.992 297.25 707.524 297.766C711.127 301.364 713.533 304.988 715.897 309.5C714.508 292.413 705.653 276.775 698.24 261.65C689.701 244.215 682.042 226.405 675.13 208.26C673.284 203.426 671.256 198.721 669.057 194.039C667.847 191.391 666.78 188.708 665.709 186C657.12 165.141 644.945 144.808 631.94 126.402C630.928 124.966 630.928 124.966 629.897 123.5C629.15 122.449 628.404 121.399 627.635 120.316C625.897 117.5 625.897 117.5 625.897 114.5Z" fill="#AAB6B9"/>
<path d="M565.25 193.312C566.683 194.352 568.1 195.415 569.5 196.5C570.188 197.013 570.877 197.526 571.586 198.055C580.476 205.173 586.274 215.369 588.5 226.5C589.787 239.727 587.601 251.683 579.5 262.5C578.997 263.178 578.494 263.856 577.977 264.555C571.213 272.969 562.161 277.935 551.5 279.5C538.171 280.776 527.669 279.238 516.625 271.125C507.093 263.124 500.644 253.075 499.279 240.459C498.387 224.682 502.678 213.088 511.812 200.25C526.453 185.269 547.371 181.874 565.25 193.312Z" fill="#040404"/>
<path d="M472.863 285.972C475.559 288.488 476.403 290.755 476.875 294.375C476.389 298.421 474.986 300.279 472.5 303.5C470.357 305.151 468.359 306.554 466.062 307.937C465.151 308.504 465.151 308.504 464.222 309.081C447.256 319.5 447.256 319.5 443.5 319.5C443.664 320.184 443.827 320.869 443.996 321.574C444.564 324.874 444.596 327.965 444.562 331.312C444.553 332.474 444.544 333.635 444.535 334.832C444.524 335.712 444.512 336.593 444.5 337.5C447.488 338.54 450.49 339.527 453.5 340.5C454.355 340.786 455.209 341.072 456.09 341.367C472.934 346.561 490.376 342.82 505.707 334.828C511.629 331.461 517.188 327.765 522.5 323.5C521.675 322.922 520.85 322.345 520 321.75C519.175 321.007 518.35 320.265 517.5 319.5C517.5 318.18 517.5 316.86 517.5 315.5C520.941 313.779 524.73 314.115 528.5 314.5C530.919 315.659 532.623 316.623 534.5 318.5C534.541 320.833 534.542 323.167 534.5 325.5C533.669 325.79 533.669 325.79 532.82 326.086C532.096 326.346 531.371 326.606 530.625 326.875C529.906 327.13 529.186 327.385 528.445 327.648C526.318 328.438 526.318 328.438 524.5 330.5C523.775 332.424 523.095 334.364 522.438 336.312C516.345 352.405 504.946 364.837 489.273 372.027C466.373 381.311 439.905 379.444 417.301 370.172C410.075 367.061 402.653 363.833 397 358.25C394.053 355.497 391.567 354.922 387.625 354.187C377.763 352.307 368.798 347.032 360.5 341.5C358.05 341.333 358.05 341.333 355.438 341.5C352.777 341.625 352.777 341.625 350.5 341.5C348.5 339.5 348.5 339.5 348 337.187C348.613 333.894 349.994 332.449 352.641 330.445C356.036 328.719 358.754 329.063 362.5 329.5C363.16 330.16 363.82 330.82 364.5 331.5C364.125 334.625 364.125 334.625 363.5 337.5C364.77 337.886 364.77 337.886 366.066 338.281C370.943 340.012 375.386 342.45 379.965 344.843C387.136 348.203 393.392 348.859 401.188 348.812C402.166 348.806 403.145 348.801 404.154 348.795C415.799 348.6 425.836 346.327 435.5 339.5C439.551 335.243 440.592 330.522 441.062 324.812C441.188 323.321 441.188 323.321 441.316 321.8C441.377 321.041 441.438 320.282 441.5 319.5C440.834 319.418 440.167 319.337 439.48 319.254C435.531 318.255 432.334 316.449 428.812 314.437C428.107 314.037 427.402 313.638 426.675 313.226C420.838 309.843 415.521 306.02 410.5 301.5C409.941 301.007 409.381 300.515 408.805 300.007C406.903 297.81 406.501 295.467 406.25 292.625C406.739 288.471 409.383 286.067 412.5 283.5C415.053 281.768 417.619 280.591 420.5 279.5C421.255 279.201 422.011 278.902 422.789 278.593C439.665 272.951 458.329 275.978 472.863 285.972Z" fill="#050505"/>
<path d="M356.125 191.5C366.863 197.7 374.179 206.327 377.875 218.313C380.718 232.413 377.864 245.406 370.5 257.5C363.603 266.877 354.74 273.335 343.5 276.5C340.527 276.914 337.623 276.978 334.625 276.938C333.835 276.929 333.045 276.921 332.231 276.912C321.806 276.611 313.985 272.763 306.5 265.5C298.295 255.997 294.815 246.303 295.25 233.781C296.311 219.861 302.638 209.223 312.5 199.5C313.076 198.914 313.652 198.327 314.246 197.723C325.497 187.12 342.257 184.548 356.125 191.5Z" fill="#050505"/>
<path d="M169.5 267.5C167.885 271.399 165.221 274.213 162.375 277.25C161.907 277.757 161.439 278.263 160.957 278.785C159.809 280.027 158.655 281.264 157.5 282.5C158.825 281.92 158.825 281.92 160.176 281.328C167.54 278.133 175.911 277.133 183.5 274.5C182.682 275.538 182.682 275.538 181.848 276.598C170.11 291.827 160.025 307.628 159.5 327.5C160.16 327.5 160.82 327.5 161.5 327.5C161.541 326.407 161.582 325.314 161.625 324.188C162.627 316.143 167.405 308.698 173.5 303.5C173.356 304.181 173.211 304.861 173.062 305.562C171.392 314.287 171.298 322.664 171.5 331.5C171.972 330.054 171.972 330.054 172.453 328.578C172.885 327.302 173.317 326.026 173.75 324.75C173.955 324.116 174.16 323.482 174.371 322.828C175.751 318.812 177.254 316.246 180.5 313.5C180.556 315.097 180.556 315.097 180.613 316.727C181.328 333.676 184.336 349.906 193.5 364.5C193.336 363.519 193.173 362.538 193.004 361.527C192.408 357.359 192.388 353.266 192.438 349.062C192.442 348.331 192.447 347.599 192.451 346.846C192.463 345.064 192.481 343.282 192.5 341.5C195.309 344.953 197.284 348.75 199.312 352.688C202.384 358.547 205.661 364.102 209.5 369.5C210.181 370.504 210.181 370.504 210.875 371.527C212.911 374.49 214.976 378.984 218 381C218 381 217.128 388.359 214 388C211.045 387.661 213 383 211 381C210.34 381.99 209.68 382.98 209 384C208.34 382.35 207.68 380.7 207 379C206.34 379 205.68 379 205 379C205 381.64 205 384.28 205 387C204.34 387 203.68 387 203 387C202.01 383.535 202.01 383.535 201 380C200 382.5 199.5 384.5 197 387C196.5 383.5 194 378 194 378C194 378 196.089 380.569 192 385C191.629 384.546 189.757 384.593 189.375 384.125C186.957 382.03 185.046 380.88 182 380C181.67 381.98 181.34 383.96 181 386C180.01 385.01 179.02 384.02 178 383C177.5 384.5 177.68 384.98 177 386C166 380 160.647 357.064 160 341.5C155 352 158.5 370 156 372.5C153.509 370.106 152.491 368.915 150.938 365.812C150.524 365.004 150.11 364.196 149.684 363.363C147.086 357.08 146.112 351.112 146.125 344.375C146.124 343.647 146.122 342.919 146.121 342.17C146.244 335.767 147.612 330.249 149.625 324.16C150.604 321.65 150.604 321.65 150.5 319.5C146.21 321.48 141.92 323.46 137.5 325.5C139 311.5 152 301 159.5 293.5C158.955 293.693 158.409 293.887 157.848 294.086C150.067 296.772 141.779 298.352 133.5 298C137.012 290.467 144.219 285.745 150.5 280.5C149.825 280.318 149.149 280.136 148.453 279.949C147.561 279.698 146.669 279.446 145.75 279.188C144.868 278.944 143.987 278.7 143.078 278.449C140.442 277.479 138.646 276.29 136.5 274.5C138.223 274.245 138.223 274.245 139.98 273.984C148.612 272.655 156.802 271.065 165.094 268.27C167.5 267.5 167.5 267.5 169.5 267.5Z" fill="#AAB6B9"/>
<path d="M528.5 314.499C530.919 315.658 532.623 316.623 534.5 318.499C534.541 320.832 534.542 323.167 534.5 325.499C533.669 325.789 533.669 325.789 532.82 326.085C531.734 326.476 531.734 326.476 530.625 326.874C529.906 327.13 529.186 327.385 528.445 327.648C526.318 328.438 526.318 328.438 524.5 330.499C523.775 332.423 523.095 334.364 522.438 336.312C516.345 352.405 504.946 364.836 489.273 372.027C466.37 381.312 439.929 379.432 417.316 370.183C402.018 363.603 402.018 363.603 397.5 358.499C398.82 357.839 400.14 357.179 401.5 356.499C401.5 355.839 401.5 355.179 401.5 354.499C402.634 354.462 403.769 354.425 404.938 354.386C416.098 354.112 416.098 354.112 426.5 350.499C427.855 349.811 427.855 349.811 429.238 349.109C434.003 346.61 438.471 344.111 442.5 340.499C443.478 341.006 443.478 341.006 444.477 341.523C458.779 348.822 474.882 351.214 490.5 346.499C493.5 346.374 493.5 346.374 495.5 346.499C494.348 344.031 493.452 342.452 491.5 340.499C492.155 340.292 492.81 340.084 493.484 339.871C504.265 336.231 513.647 330.608 522.5 323.499C521.675 322.922 520.85 322.344 520 321.749C519.175 321.007 518.35 320.264 517.5 319.499C517.5 318.179 517.5 316.859 517.5 315.499C520.941 313.779 524.73 314.115 528.5 314.499Z" fill="#100C0B"/>
<path d="M356.125 191.5C366.863 197.7 374.179 206.327 377.875 218.313C380.718 232.413 377.864 245.406 370.5 257.5C363.603 266.877 354.74 273.335 343.5 276.5C340.527 276.914 337.623 276.978 334.625 276.938C333.835 276.929 333.045 276.921 332.231 276.912C321.806 276.611 313.985 272.763 306.5 265.5C298.295 255.997 294.815 246.303 295.25 233.781C296.311 219.861 302.638 209.223 312.5 199.5C313.076 198.914 313.652 198.327 314.246 197.723C325.497 187.12 342.257 184.548 356.125 191.5ZM323.969 211.598C317.361 220.157 316.92 229.051 317.5 239.5C318.95 248.018 323.806 254.589 330.5 259.875C337.492 264.712 344.135 265.324 352.5 264.5C360.207 262.751 365.738 258.758 370.5 252.5C375.651 243.407 376.673 233.79 375.5 223.5C373.285 215.804 368.229 209.405 361.414 205.219C348.056 198.267 334.264 200.502 323.969 211.598Z" fill="#F8F8F8"/>
<path d="M565.25 193.312C566.683 194.352 568.1 195.415 569.5 196.5C570.188 197.013 570.877 197.526 571.586 198.055C580.476 205.173 586.274 215.369 588.5 226.5C589.787 239.727 587.601 251.683 579.5 262.5C578.997 263.178 578.494 263.856 577.977 264.555C571.213 272.969 562.161 277.935 551.5 279.5C538.171 280.776 527.669 279.238 516.625 271.125C507.093 263.124 500.644 253.075 499.279 240.459C498.387 224.682 502.678 213.088 511.812 200.25C526.453 185.269 547.371 181.874 565.25 193.312ZM512.5 210.5C506.479 220.901 503.792 229.973 505.961 242.07C509.155 252.556 515.317 261.075 524.637 266.816C532.931 270.858 543.722 271.18 552.535 268.617C555.068 267.435 557.234 266.132 559.5 264.5C560.215 263.992 560.931 263.484 561.668 262.961C567.041 258.707 570.43 253.581 573.5 247.5C573.878 246.755 574.255 246.01 574.644 245.242C575.846 241.391 575.841 237.762 575.812 233.75C575.807 232.944 575.801 232.137 575.795 231.307C575.576 220.6 572.097 212.828 564.977 204.777C558.515 198.615 549.972 195.289 541.125 194.75C530.073 195.228 518.977 201.573 512.5 210.5Z" fill="#F4F4F4"/>
<path d="M116 458C115.737 457.151 116.255 458.824 116 458C116.193 458.638 119.011 464.873 119.211 465.531C119.211 464.031 119.031 460.551 119.711 459.531C121.589 461.409 121.102 464.57 121.273 467.093C121.357 468.291 121.441 469.488 121.527 470.722C121.588 471.649 121.648 472.576 121.711 473.531C122.371 472.871 123.031 472.211 123.711 471.531C123.766 473.822 123.804 476.114 123.836 478.406C123.859 479.682 123.882 480.958 123.906 482.273C123.859 485.384 123.409 488.193 122.726 491.226C121.416 497.325 121.343 503.311 121.336 509.531C121.311 510.642 121.287 511.753 121.262 512.898C121.224 523.527 124.112 532.825 131.711 540.531C137.195 545.066 143.111 544.242 150 544C161.202 542.799 168.91 537.434 175.871 528.874C184.444 516.849 189.091 502.719 192.711 488.531C193.041 488.531 193.371 488.531 193.711 488.531C193.019 505.795 185.861 528.496 173.301 540.913C171.737 542.296 170.149 543.653 168.531 544.972C168.531 544.972 167.5 546.5 165.711 548.531C167.165 548.623 167.165 548.623 168.648 548.718C175.711 549.721 181.302 554.173 186.711 558.531C194.57 562.312 204.599 561.296 212.711 558.531C223.626 553.978 231.83 547.399 236.655 536.374C242.604 521.49 244.62 517.018 245.5 501C246.32 532.11 248.531 521.641 243.711 535.531C243.403 536.505 243.095 537.48 242.777 538.484C242.127 540.512 253.716 539.994 253 542C250 542.441 237.957 556.151 234.711 559.531C234.196 560.071 233.682 560.611 233.152 561.167C224.879 569.028 215.036 572.354 203.817 572.107C197.772 571.771 192.985 570.411 187.711 567.531C186.922 567.134 186.133 566.737 185.32 566.327C179.247 563.15 173.406 559.483 169.711 553.531C169.711 552.871 169.711 552.211 169.711 551.531C169.091 551.819 164.85 551.733 164.211 552.031C154.8 555.976 148.162 557.515 138.398 553.968C125.363 547.742 116.557 538.204 111.711 524.531C111.154 523.061 111.154 523.061 110.586 521.562C107.102 511.206 107.319 501.344 107.711 490.531C108.041 490.531 108.371 490.531 108.711 490.531C108.748 491.784 108.786 493.037 108.824 494.327C108.89 495.979 108.956 497.63 109.023 499.281C109.057 500.518 109.057 500.518 109.092 501.781C109.127 502.58 109.163 503.379 109.199 504.202C109.225 504.936 109.251 505.669 109.278 506.424C109.817 509.049 109.784 509.478 111.5 511.5C111.5 511.5 112.761 511.21 112.787 510.53C112.903 507.509 113.026 504.489 113.148 501.468C113.188 500.43 113.227 499.391 113.267 498.322C113.488 492.987 113.898 487.813 114.711 482.531C115.688 471.417 113.176 462.176 107.711 452.531C108.371 452.201 115 453 116 458C115.66 457.32 116.33 458.66 116 458Z" fill="#030303"/>
<path d="M814.976 450.5C815.306 451.16 815.636 451.82 815.976 452.5C815.129 455.028 814.219 457.467 813.226 459.938C808.336 472.572 804.339 485.793 804.976 499.5C805.966 497.52 806.956 495.54 807.976 493.5C808.636 493.5 809.296 493.5 809.976 493.5C810.306 492.51 810.636 491.52 810.976 490.5C808.082 509.182 801.458 523.883 785.976 535.5C776.216 541.571 765.284 542.682 753.976 541.5C749.753 540.213 745.89 538.533 741.976 536.5C741.316 536.17 740.656 535.84 739.976 535.5C739.935 536.16 739.894 536.82 739.851 537.5C737.606 545.199 730.857 551.721 723.999 555.626C718.205 558.389 713.357 559.118 706.976 559C706.139 559.015 705.301 559.031 704.437 559.047C697.133 559.002 690.957 557.117 685.414 552.25C684.94 551.673 684.465 551.095 683.976 550.5C688.431 551.49 688.431 551.49 692.976 552.5C690.275 549.717 687.597 547.198 684.539 544.812C680.132 541.027 677.517 536.685 674.976 531.5C674.242 530.017 674.242 530.017 673.492 528.504C668.237 515.736 669.515 502.052 669.976 488.5C670.306 488.5 670.636 488.5 670.976 488.5C671.002 489.637 671.028 490.774 671.055 491.945C671.571 507.819 674.109 525.42 686.164 536.938C694.268 543.53 703.504 546.955 713.89 546.844C720.551 546.102 727.678 543.679 731.976 538.312C732.636 537.384 733.296 536.456 733.976 535.5C735.976 534.25 735.976 534.25 737.976 533.5C738.884 533.129 739.791 532.757 740.726 532.375C741.469 532.086 742.211 531.798 742.976 531.5C741.672 528.642 740.244 526.537 738.101 524.25C734.905 520.565 732.792 517.023 730.976 512.5C730.603 511.63 730.229 510.76 729.844 509.863C724.806 495.824 725.337 478.07 727.976 463.5C728.306 463.5 728.636 463.5 728.976 463.5C728.991 464.129 729.006 464.757 729.021 465.405C729.36 482.687 729.36 482.687 732.976 499.5C733.315 500.594 733.654 501.689 734.004 502.816C737.938 514.248 744.21 522.745 754.976 528.5C761.75 530.758 770.384 530.836 776.851 527.625C789.214 519.444 793.877 505.65 796.735 491.86C798.023 485.086 798.524 478.413 798.703 471.527C798.976 468.5 798.976 468.5 800.976 466.5C801.306 467.82 801.636 469.14 801.976 470.5C802.636 466.21 803.296 461.92 803.976 457.5C804.306 457.5 804.636 457.5 804.976 457.5C804.976 460.47 804.976 463.44 804.976 466.5C805.636 466.5 804.953 458.117 805.633 458.117C805.754 457.419 805.875 456.72 806 456C806.251 454.635 810.72 455.893 810.976 454.5C810.976 455.82 810.976 457.14 810.976 458.5C812.296 455.86 813.616 453.22 814.976 450.5Z" fill="#F0F0EF"/>
<path d="M517.5 334.5C514.851 343.57 509.325 352.097 501.5 357.5C500.84 357.83 500.18 358.16 499.5 358.5C498.899 358.198 498.299 357.897 497.68 357.586C490.392 353.955 481.166 357.113 473.859 359.234C470.386 360.409 470.386 360.409 467.172 362.641C462.219 365.595 457.08 364.695 451.527 364.344C445.572 364.114 442.417 365.084 437.5 368.5C437.17 368.83 436.84 369.16 436.5 369.5C426.529 370.224 417.147 364.824 408.5 360.5C409.329 360.627 407.696 360.376 408.5 360.5C408.5 360.5 405 359 403.5 357.5C403.17 356.84 402.84 356.18 402.5 355.5C403.781 355.365 405.063 355.229 406.383 355.09C420.694 353.384 431.447 350.101 442.5 340.5C443.478 341.007 443.478 341.007 444.477 341.523C460.226 349.561 476.813 350.89 493.809 345.844C500.756 343.315 507.848 340.259 513.77 335.785C515.5 334.5 515.5 334.5 517.5 334.5Z" fill="#252120"/>
<path d="M694.499 558.5L714.5 552.5L720 549C726 545.5 726.679 543.679 730.977 538.312C731.637 537.384 732.297 536.456 732.977 535.5C734.977 534.25 734.977 534.25 736.977 533.5C737.802 533.129 738.627 532.757 739.477 532.375C743.399 531.002 745.636 531.351 749.415 533C759.572 536.931 772.5 537 780.5 532.5C784.5 531 785.016 530.532 787 529.5C786.187 532.438 792.188 530.438 791 533.5C792.515 532.995 789.515 533.995 791 533.5C791 532.82 791 534.16 791 533.5C789.68 533.5 775.5 541.5 775.5 541.5C775.5 540.48 775.5 542.49 775.5 541.5C762.723 545.087 752.818 542.652 740.977 536.5C740.317 536.17 739.657 535.84 738.977 535.5C738.936 536.16 738.895 536.82 738.852 537.5C736.607 545.199 729.858 551.721 723 555.626C717.205 558.389 712.358 559.118 705.977 559C705.14 559.015 704.302 559.031 703.438 559.047C696.134 559.002 694.499 558.5 694.499 558.5C694.528 558.543 694.471 558.457 694.499 558.5Z" fill="black"/>
<path d="M566.094 95.1367C571.359 99.0416 576.602 103.281 578.02 109.941C578.277 112.136 578.445 114.292 578.5 116.5C574.414 115.817 571.113 113.696 567.562 111.688C560.743 107.962 554.083 105.327 546.5 103.5C545.279 103.202 544.059 102.904 542.801 102.598C532.418 100.272 522.11 99.9162 511.5 100.5C511.17 100.83 510.84 101.16 510.5 101.5C508.834 101.541 507.166 101.543 505.5 101.5C505.17 99.85 504.84 98.2 504.5 96.5C520.607 80.7505 548.052 83.752 566.094 95.1367Z" fill="#080808"/>
<path d="M353.062 90.25C353.861 90.2423 354.66 90.2345 355.482 90.2266C362.553 90.2496 369.742 91.0017 375.5 95.5C375.5 96.49 375.5 97.48 375.5 98.5C371.313 100.501 367.8 100.754 363.188 100.875C338.253 101.994 317.978 113.307 300.5 130.5C299.84 130.17 299.18 129.84 298.5 129.5C298.738 119.123 302.507 111.917 309.504 104.348C316.645 97.7375 325.22 94.8656 334.5 92.5C335.524 92.2307 335.524 92.2307 336.57 91.9561C342.127 90.589 347.351 90.1944 353.062 90.25Z" fill="#0A0A0A"/>
<path d="M110.5 454.5C115 459 116.737 466.651 117 467.5C116.732 466.649 117.26 468.326 117 467.5C116.801 466.843 117.193 468.138 117 467.5C117.66 466.51 117.5 463 117.5 461.5C121 469 119.328 471.477 119.5 474C119.414 472.766 119.584 475.198 119.5 474C119.438 473.045 119.561 474.927 119.5 474C120.16 473.34 120.5 473.5 121 470C124.5 476 122.5 483.5 122.5 483.5C122.476 482.185 122.523 484.776 122.5 483.5C122.452 486.611 121.199 490.162 120.516 493.195C119.205 499.294 119.132 505.281 119.125 511.5C119.101 512.611 119.076 513.722 119.051 514.867C119.013 525.496 121.901 534.794 129.5 542.5C134.984 547.036 141.15 547.113 148.039 546.871C183 539 189 489 191 490C190.66 490 191.33 490 191 490C190.255 508.583 182.827 532.159 168.937 545C163.006 550.137 157.904 552.046 150.188 551.938C149.433 551.929 148.678 551.921 147.9 551.912C142.009 551.734 137.473 550.806 132.5 547.5C131.733 547.014 130.966 546.528 130.176 546.027C120.003 538.915 114.703 526.996 111.947 515.116C111.5 510.5 111.5 512.5 111.367 507.664C111.365 506.314 111.365 506.314 111.363 504.937C111.367 504.009 111.371 503.081 111.375 502.125C111.371 501.205 111.367 500.284 111.363 499.336C111.371 494.282 111.708 489.502 112.5 484.5C113.478 473.386 112 463 111.5 461.5L110.5 454.5Z" fill="#ECECEB"/>
<path d="M479.5 393.5C476.926 401.221 470.325 405.777 463.312 409.437C459.692 411.1 456.512 412.238 452.5 412.5C451.263 412.644 450.025 412.788 448.75 412.937C442.057 412.809 436.765 408.654 432.086 404.203C426.5 398.163 426.5 398.163 426.5 394.5C464.571 393.306 464.571 393.306 479.5 393.5Z" fill="#ADB7B9"/>
<path d="M651.5 414.5C651.5 418.514 650.022 419.599 647.5 422.688C635.528 438.007 629.326 455.983 629.313 475.375C629.3 476.33 629.288 477.285 629.275 478.27C629.245 493.135 635.062 505.968 645.313 516.688C650.698 521.856 656.5 525.877 663.5 528.5C658.416 530.187 654.308 528.433 649.5 526.5C639.03 521.101 631.827 512.339 627.5 501.5C627.107 500.531 626.714 499.561 626.309 498.562C621.282 483.992 620.825 463.488 627.234 449.242C627.89 447.945 628.562 446.655 629.25 445.375C629.607 444.689 629.964 444.003 630.332 443.296C635.927 432.711 642.89 422.861 651.5 414.5Z" fill="#ECECEC"/>
<path d="M512.72 243.803C511.963 242.761 513.463 244.824 512.72 243.803C512.72 243.803 519.721 261.303 538.22 261.303C556.72 261.303 564.72 244.803 564.72 244.803C565.18 251.358 561.422 258.252 555.22 262.803C549.5 267 538.5 268.197 531 266.5C519.168 263.822 512.878 245.535 512.72 243.803C512.807 244.731 512.722 243.824 512.72 243.803Z" fill="url(#paint2_linear_837_631)"/>
<path d="M370 244.5C370.757 243.458 369.257 245.521 370 244.5C370 244.5 367.536 255.303 349.036 255.303C330.536 255.303 322.536 238.803 322.536 238.803C322.076 245.358 326.098 251.912 332.036 256.803C340.536 263.803 351.5 263.5 356.536 261.303C367.655 256.451 369.842 246.232 370 244.5C369.914 245.428 369.998 244.521 370 244.5Z" fill="url(#paint3_linear_837_631)"/>
<path d="M447.5 318.5C447.503 319.092 447.505 319.683 447.508 320.293C447.727 324.762 447.985 326.908 451 330.375C461.793 337.899 478.112 338.016 490.625 335.812C500.814 333.36 511.024 329.797 519.5 323.5C519.83 322.84 520.16 322.18 520.5 321.5C521.49 321.83 522.48 322.16 523.5 322.5C511.258 335.927 492.522 343.243 474.746 344.73C463.974 345.22 454.095 342.297 444.5 337.5C444.17 331.56 443.84 325.62 443.5 319.5C445.5 318.5 445.5 318.5 447.5 318.5Z" fill="#B0B9BC"/>
<path d="M245.5 501C246.102 523.844 249.296 531.186 234.188 550C226.304 558.237 217.233 561.459 206.125 561.875C199.889 561.802 195.031 560.297 189.5 557.5C192.684 556.439 194.793 556.463 198.125 556.562C209.138 556.615 217.6 553.549 226.688 547.312C242.204 531.796 241.5 522.5 245.5 501Z" fill="#F1F1F1"/>
<path d="M495.5 357.5C499 359 498.5 360.5 498.5 360.5C488.527 367.999 477.383 372.621 464.844 372.633C463.574 372.634 462.304 372.635 460.996 372.637C459.677 372.633 458.359 372.629 457 372.625C455.022 372.631 455.022 372.631 453.004 372.637C451.734 372.636 450.464 372.634 449.156 372.633C447.421 372.631 447.421 372.631 445.65 372.629C442.811 372.513 440.26 372.151 437.5 371.5C438.5 368.5 438.5 368.5 440.945 366.84C446.255 364.839 451.361 365.065 456.98 365.061C463.158 364.925 467.178 363.547 472.5 360.5C479.831 357.444 487.5 355 495.5 357.5Z" fill="#B06350"/>
<path d="M727.5 463.5C727.83 463.5 728.16 463.5 728.5 463.5C728.522 464.443 728.522 464.443 728.544 465.405C728.883 482.687 728.883 482.687 732.5 499.5C733.009 501.142 733.009 501.142 733.527 502.816C737.461 514.248 743.733 522.745 754.5 528.5C757.815 529.605 760.704 529.821 764.188 530.062C765.957 530.188 765.957 530.188 767.762 530.316C768.665 530.377 769.569 530.438 770.5 530.5C770.5 531.16 770.5 531.82 770.5 532.5C771.49 533.49 771.49 533.49 772.5 534.5C764.162 536.399 755.295 536.859 747.559 532.828C735.597 525.111 730.244 514.911 726.945 501.191C726.439 498.131 726.37 495.235 726.367 492.133C726.366 490.917 726.365 489.702 726.363 488.449C726.367 487.187 726.371 485.925 726.375 484.625C726.371 483.371 726.367 482.116 726.363 480.824C726.369 474.953 726.413 469.278 727.5 463.5Z" fill="#F1F1F1"/>
<path d="M437.5 318.5C438.82 318.83 440.14 319.16 441.5 319.5C441.981 326.763 441.85 332.451 437.5 338.5C430.116 346.331 417.661 349.386 407.23 349.836C405.383 349.865 403.535 349.878 401.688 349.875C400.245 349.877 400.245 349.877 398.773 349.879C391.367 349.769 385.257 348.693 378.5 345.5C378.5 345.17 378.5 344.84 378.5 344.5C379.175 344.51 379.849 344.521 380.544 344.532C383.655 344.574 386.765 344.599 389.875 344.625C390.936 344.642 391.997 344.659 393.09 344.676C399.826 344.717 405.962 344.114 412.5 342.5C413.428 342.289 414.356 342.077 415.312 341.859C422.816 339.769 431.352 336.477 435.5 329.5C436.283 326.697 436.283 326.697 436.688 323.75C436.846 322.765 437.005 321.78 437.168 320.766C437.278 320.018 437.387 319.27 437.5 318.5Z" fill="#AFBBBD"/>
<path d="M433.5 398.5C434.266 398.827 435.031 399.155 435.82 399.492C440.733 400.838 445.31 400.714 450.375 400.625C451.35 400.616 452.324 400.607 453.328 400.598C455.719 400.574 458.109 400.541 460.5 400.5C460.17 401.49 459.84 402.48 459.5 403.5C461.15 404.16 462.8 404.82 464.5 405.5C464.5 406.49 464.5 407.48 464.5 408.5C460.45 410.718 457.1 412.04 452.5 412.5C451.263 412.644 450.025 412.789 448.75 412.938C443.306 412.885 438.564 409.954 434.5 406.5C433.355 403.652 433.5 401.665 433.5 398.5Z" fill="#AFBABD"/>
<path d="M596.5 236.5C596.83 236.5 597.16 236.5 597.5 236.5C598.052 250.862 595.398 262.827 585.473 273.742C574.314 283.686 561.347 288.06 546.594 287.738C543.813 287.524 541.215 287.123 538.5 286.5C538.5 286.17 538.5 285.84 538.5 285.5C540.223 285.479 540.223 285.479 541.98 285.457C557.251 285.071 571.78 281.484 582.82 270.109C591.11 260.138 595.477 249.394 596.5 236.5Z" fill="#E9E9E9"/>
<path d="M794.5 495.5C794.83 495.5 795.16 495.5 795.5 495.5C795.294 505.793 789.419 516.517 782.395 523.875C779.129 526.676 775.595 529.115 771.5 530.5C769.23 530.121 769.23 530.121 767.5 529.5C772.25 525.5 772.25 525.5 774.5 525.5C774.768 524.799 775.036 524.098 775.312 523.375C777.672 517.662 779.986 513.782 784.5 509.5C785.16 508.51 785.82 507.52 786.5 506.5C787.5 505.5 788.5 504.5 789.5 503.5C791.809 500.784 793.367 498.898 794.5 495.5Z" fill="#242424"/>
<path d="M529.5 215.5C532.375 217 532.375 217 534.5 219.5C535.16 222.301 535.11 224.692 534.5 227.5C532.938 230 532.938 230 530.5 231.5C526.594 232.058 524.449 232.084 521.063 230C518.864 226.483 518.688 223.541 519.5 219.5C522.198 215.349 524.692 214.715 529.5 215.5Z" fill="#F2F2F2"/>
<path d="M341.5 219.5C343.875 221.125 343.875 221.125 345.5 223.5C346.1 227.102 345.956 228.779 344 231.875C340.272 234.298 337.902 233.997 333.5 233.5C330.983 229.724 330.761 226.937 331.5 222.5C334.29 219.067 337.254 218.881 341.5 219.5Z" fill="#F3F3F3"/>
<path d="M287.5 228.5C287.83 228.5 288.16 228.5 288.5 228.5C288.526 229.348 288.551 230.196 288.578 231.07C289.312 246.243 292.864 257.658 302.875 269.25C310.151 275.487 317.292 278.851 326.5 281.5C326.5 281.83 326.5 282.16 326.5 282.5C315.568 282.271 307.363 278.981 299.316 271.52C290.459 261.672 287.312 250.588 287.437 237.688C287.442 236.804 287.446 235.92 287.451 235.01C287.463 232.84 287.481 230.67 287.5 228.5Z" fill="#DBDBDB"/>
<path d="M820.5 452.5C821.5 455.5 821.5 455.5 820.5 458.5C823.524 457.912 826.518 457.273 829.5 456.5C827.833 458.167 826.167 459.833 824.5 461.5C825.49 461.83 826.48 462.16 827.5 462.5C826.84 462.5 826.18 462.5 825.5 462.5C825.5 463.16 825.5 463.82 825.5 464.5C826.49 464.17 827.48 463.84 828.5 463.5C830.622 463.354 832.749 463.279 834.875 463.25C835.996 463.224 837.118 463.198 838.273 463.172C841.791 463.53 843.648 464.47 846.5 466.5C845.84 466.83 845.18 467.16 844.5 467.5C843.51 467.17 842.52 466.84 841.5 466.5C839.545 466.355 837.585 466.279 835.625 466.25C834.596 466.224 833.568 466.198 832.508 466.172C829.103 466.543 827.313 467.612 824.5 469.5C823.386 469.748 823.386 469.748 822.25 470C821.384 470.248 821.384 470.248 820.5 470.5C820.17 471.49 819.84 472.48 819.5 473.5C818.51 473.5 817.52 473.5 816.5 473.5C816.5 472.51 816.5 471.52 816.5 470.5C819.126 468.655 821.451 467.516 824.5 466.5C824.5 465.84 824.5 465.18 824.5 464.5C820.444 464.968 817.034 465.38 813.5 467.5C813.816 461.335 816.992 457.327 820.5 452.5Z" fill="#505050"/>
<path d="M727.5 463.5C727.83 463.5 728.16 463.5 728.5 463.5C728.522 464.443 728.522 464.443 728.544 465.405C728.972 482.668 728.972 482.668 732.5 499.5C732.785 500.49 733.07 501.48 733.363 502.5C734.05 504.843 734.76 507.174 735.5 509.5C733.85 510.49 732.2 511.48 730.5 512.5C724.301 497.777 724.683 479.054 727.5 463.5Z" fill="#E9E9E9"/>
<path d="M438.75 284.188C439.456 284.172 440.163 284.156 440.891 284.139C446.022 284.134 446.022 284.134 448.484 286.02C448.987 286.753 448.987 286.753 449.5 287.5C441.764 291.686 434.938 292.883 426.375 290.5C425.426 290.17 424.478 289.84 423.5 289.5C423.5 288.51 423.5 287.52 423.5 286.5C428.713 284.788 433.277 284.162 438.75 284.188Z" fill="#E5E5E5"/>
<path d="M669.5 488.5C669.83 488.5 670.16 488.5 670.5 488.5C670.526 489.637 670.552 490.774 670.578 491.945C671.033 505.932 673.539 517.654 680.328 530.074C681.5 532.5 681.5 532.5 681.5 535.5C680.84 535.5 680.18 535.5 679.5 535.5C679.17 536.49 678.84 537.48 678.5 538.5C677.552 536.714 676.617 534.921 675.688 533.125C675.166 532.127 674.644 531.13 674.106 530.102C669.843 520.54 669.103 512.326 669.313 501.875C669.326 500.585 669.34 499.294 669.354 497.965C669.389 494.809 669.438 491.655 669.5 488.5Z" fill="#EAEAE9"/>
<path d="M361.5 180.5C365.094 183.27 368.35 186.237 371.5 189.5C367.97 189.5 367.584 188.962 365 186.75C360.261 183.031 355.194 181.294 349.5 179.5C348.51 179.17 347.52 178.84 346.5 178.5C333.959 177.493 324.649 179.79 314.473 187.133C312.547 188.467 310.618 189.505 308.5 190.5C320.352 173.907 344.27 170.775 361.5 180.5Z" fill="#C4C4C4"/>
<path d="M630.5 25.5C630.5 26.16 630.5 26.82 630.5 27.5C628.969 29.0078 628.969 29.0078 627 30.625C626.35 31.1638 625.701 31.7027 625.031 32.2578C624.526 32.6677 624.021 33.0777 623.5 33.5C624.224 33.0063 624.949 32.5126 625.695 32.0039C626.662 31.3632 627.629 30.7226 628.625 30.0625C629.576 29.4244 630.528 28.7863 631.508 28.1289C634.598 26.4465 637.024 25.8662 640.5 25.5C635.149 31.2076 629.005 36.1633 622.5 40.5C621.84 39.84 621.18 39.18 620.5 38.5C619.84 38.5 619.18 38.5 618.5 38.5C618.809 37.9225 619.119 37.345 619.438 36.75C620.426 34.6571 621.017 32.7546 621.5 30.5C620.18 30.83 618.86 31.16 617.5 31.5C619.67 29.0721 621.5 27.8944 624.562 26.8125C625.255 26.5611 625.947 26.3098 626.66 26.0508C628.5 25.5 628.5 25.5 630.5 25.5Z" fill="#0F0D0E"/>
<path d="M431.5 396.5C447.34 396.995 447.34 396.995 463.5 397.5C459.692 401.308 455.705 401.774 450.42 401.879C449.683 401.878 448.946 401.876 448.188 401.875C447.432 401.876 446.677 401.878 445.899 401.879C440.167 401.77 436.307 400.773 431.5 397.5C431.5 397.17 431.5 396.84 431.5 396.5Z" fill="#0C1010"/>
<path d="M541.188 172.25C543.111 172.242 543.111 172.242 545.074 172.234C548.2 172.477 549.899 172.841 552.5 174.5C550.885 174.539 550.885 174.539 549.238 174.578C535.352 175.056 521.26 177.184 510.727 187.184C510.322 187.618 509.917 188.052 509.5 188.5C508.84 188.17 508.18 187.84 507.5 187.5C515.943 177.452 528.133 172.197 541.188 172.25Z" fill="#CACACA"/>
<path d="M554.5 300.5C555.82 300.5 557.14 300.5 558.5 300.5C558.5 301.16 558.5 301.82 558.5 302.5C559.82 302.17 561.14 301.84 562.5 301.5C563.057 302.583 563.057 302.583 563.625 303.688C565.886 307.08 568.292 309.005 571.5 311.5C567.329 312.89 564.318 311.402 560.312 310.062C559.563 309.82 558.813 309.577 558.041 309.326C556.191 308.725 554.345 308.114 552.5 307.5C553.16 306.51 553.82 305.52 554.5 304.5C554.17 303.51 553.84 302.52 553.5 301.5C553.83 301.17 554.16 300.84 554.5 300.5Z" fill="#0C0807"/>
<path d="M620.5 282.5C624.136 285.934 626.861 289.297 629.5 293.5C629.17 294.16 628.84 294.82 628.5 295.5C628.17 295.5 627.84 295.5 627.5 295.5C627.83 296.49 628.16 297.48 628.5 298.5C624.467 297.281 620.957 295.94 617.5 293.5C617.5 292.84 617.5 292.18 617.5 291.5C618.16 291.17 618.82 290.84 619.5 290.5C619.479 289.551 619.459 288.603 619.438 287.625C619.5 284.5 619.5 284.5 620.5 282.5Z" fill="#100B09"/>
<path d="M831.5 461.5C834.438 461.447 837.375 461.407 840.312 461.375C841.563 461.35 841.563 461.35 842.838 461.325C843.64 461.318 844.443 461.312 845.27 461.305C846.008 461.295 846.746 461.284 847.507 461.273C849.5 461.5 849.5 461.5 852.5 463.5C852.5 464.16 852.5 464.82 852.5 465.5C853.49 465.83 854.48 466.16 855.5 466.5C857.5 469.5 857.5 469.5 857.5 472.5C854.068 471.866 851.743 470.525 848.875 468.563C847.711 467.776 847.711 467.776 846.523 466.973C844.5 465.5 844.5 465.5 842.5 463.5C839.838 463.038 839.838 463.038 836.875 462.875C835.371 462.763 835.371 462.763 833.836 462.649C833.065 462.6 832.294 462.551 831.5 462.5C831.5 462.17 831.5 461.84 831.5 461.5Z" fill="#242524"/>
<path d="M640.5 266.5C643.227 268.516 643.53 269.642 644.25 273.062C644.5 276.5 644.5 276.5 643.5 278.5C642.84 278.5 642.18 278.5 641.5 278.5C641.17 279.82 640.84 281.14 640.5 282.5C638.52 279.86 636.54 277.22 634.5 274.5C635.16 274.5 635.82 274.5 636.5 274.5C636.603 273.551 636.706 272.603 636.812 271.625C637.5 268.5 637.5 268.5 640.5 266.5Z" fill="#0D0706"/>
<path d="M847.5 467.5C850.415 468.574 852.278 469.278 854.5 471.5C856.966 471.832 856.966 471.832 859.868 471.819C860.989 471.839 862.11 471.859 863.265 471.879C864.479 471.891 865.694 471.902 866.945 471.914C868.806 471.943 868.806 471.943 870.703 471.973C874.001 472.022 877.299 472.064 880.597 472.101C883.962 472.141 887.327 472.192 890.691 472.242C897.294 472.338 903.897 472.423 910.5 472.5C910.5 472.83 910.5 473.16 910.5 473.5C903.007 473.546 895.514 473.582 888.02 473.604C884.541 473.614 881.062 473.628 877.582 473.651C873.581 473.677 869.58 473.686 865.578 473.695C864.33 473.706 863.082 473.716 861.796 473.727C860.635 473.727 859.474 473.727 858.278 473.727C857.257 473.731 856.235 473.736 855.183 473.741C852.427 473.493 850.795 473.023 848.5 471.5C847.75 469.375 847.75 469.375 847.5 467.5Z" fill="#575757"/>
<path d="M193.5 484.5C193.83 484.5 194.16 484.5 194.5 484.5C194.159 493.006 192.233 500.466 189.5 508.5C189.127 509.618 188.755 510.735 188.371 511.887C188.084 512.749 187.796 513.611 187.5 514.5C186.18 514.5 184.86 514.5 183.5 514.5C185.334 508.92 187.304 503.393 189.289 497.865C190.861 493.446 192.26 489.024 193.5 484.5Z" fill="#DFDFDF"/>
<path d="M187.5 62.5C188.16 62.83 188.82 63.16 189.5 63.5C187.52 64.49 187.52 64.49 185.5 65.5C185.83 66.82 186.16 68.14 186.5 69.5C184.043 71.5641 181.93 72.74 178.938 74C175.916 75.3186 174.623 76.1533 172.5 78.5C171.84 78.5 171.18 78.5 170.5 78.5C173.689 71.4262 180.43 65.6204 187.5 62.5Z" fill="#232323"/>
<path d="M820.5 452.5C821.5 455.5 821.5 455.5 820.5 458.5C823.524 457.912 826.518 457.273 829.5 456.5C826.534 459.692 823.45 461.959 819.75 464.25C818.765 464.864 817.78 465.477 816.766 466.109C816.018 466.568 815.27 467.027 814.5 467.5C813.785 465.859 813.785 465.859 813.5 463.5C814.934 460.703 814.934 460.703 816.938 457.75C817.596 456.765 818.255 455.78 818.934 454.766C819.451 454.018 819.967 453.27 820.5 452.5Z" fill="#EFEEEB"/>
<path d="M630.5 514.5C636.68 515.736 639.312 517.801 643.5 522.5C643.17 523.49 642.84 524.48 642.5 525.5C634.994 523.196 634.994 523.196 633.125 520.562C632.816 519.542 632.816 519.542 632.5 518.5C632.129 517.757 631.757 517.015 631.375 516.25C631.086 515.673 630.798 515.095 630.5 514.5Z" fill="#0C0D0C"/>
<path d="M662.5 31.4998C659.366 35.1539 655.352 36.4139 650.996 38.2185C648.225 39.3851 648.225 39.3851 646.5 42.4998C645.84 42.1698 645.18 41.8398 644.5 41.4998C644.5 37.4998 644.5 37.4998 646.062 35.9373C651.642 32.6465 655.971 31.1 662.5 31.4998Z" fill="#101010"/>
<path d="M63.5938 441.121C65.8125 441.125 65.8125 441.125 69.5 441.5C67.8763 444.747 64.7461 445.202 61.5 446.5C65.955 446.005 65.955 446.005 70.5 445.5C67.9096 448.09 65.6283 448.527 62.125 449.562C60.9829 449.904 59.8408 450.246 58.6641 450.598C56.2826 451.277 53.908 451.925 51.5 452.5C52.2219 451.799 52.9438 451.098 53.6875 450.375C55.1786 448.921 56.4706 447.542 57.6641 445.832C59.3479 443.421 60.6138 441.66 63.5938 441.121Z" fill="#272727"/>
<path d="M651.5 414.5C651.5 418.619 649.777 420.038 647.25 423.25C644.633 426.607 642.138 429.889 640.188 433.688C638.5 436.5 638.5 436.5 636.25 437.438C635.673 437.458 635.095 437.479 634.5 437.5C635.987 433.048 638.44 429.646 641.312 426C641.739 425.444 642.165 424.889 642.604 424.316C645.353 420.781 648.273 417.606 651.5 414.5Z" fill="#DCDCDC"/>
<path d="M781.5 517.5C781.5 518.82 781.5 520.14 781.5 521.5C780.84 521.5 780.18 521.5 779.5 521.5C779.5 522.49 779.5 523.48 779.5 524.5C778.51 524.5 777.52 524.5 776.5 524.5C776.417 525.119 776.335 525.738 776.25 526.375C775.5 528.5 775.5 528.5 773.688 529.812C771.177 530.602 769.945 530.373 767.5 529.5C772.25 525.5 772.25 525.5 774.5 525.5C774.768 524.737 775.036 523.974 775.312 523.188C776.691 520.067 777.837 517.5 781.5 517.5Z" fill="#272727"/>
<path d="M837.438 470.25C839.276 470.211 839.276 470.211 841.152 470.172C844.5 470.5 844.5 470.5 848.5 473.5C840.91 473.5 833.32 473.5 825.5 473.5C829.037 469.963 832.654 470.31 837.438 470.25Z" fill="#9C9C9C"/>
<path d="M790.5 506.5C791.16 506.83 791.82 507.16 792.5 507.5C788.961 515.46 784.862 523.841 776.5 527.5C776.5 526.51 776.5 525.52 776.5 524.5C777.49 524.5 778.48 524.5 779.5 524.5C779.5 523.51 779.5 522.52 779.5 521.5C780.16 521.5 780.82 521.5 781.5 521.5C781.83 520.51 782.16 519.52 782.5 518.5C783.16 518.5 783.82 518.5 784.5 518.5C784.789 517.778 785.077 517.056 785.375 516.312C786.417 513.708 787.458 511.104 788.5 508.5C789.16 508.5 789.82 508.5 790.5 508.5C790.5 507.84 790.5 507.18 790.5 506.5Z" fill="#525252"/>
<path d="M179.5 73.5C179.83 74.16 180.16 74.82 180.5 75.5C181.16 75.5 181.82 75.5 182.5 75.5C182.83 74.84 183.16 74.18 183.5 73.5C183.5 74.49 183.5 75.48 183.5 76.5C181.199 78.4375 181.199 78.4375 178.188 80.5C173.566 83.673 173.566 83.673 169.5 87.5C168.84 87.17 168.18 86.84 167.5 86.5C171.364 82.0128 175.248 77.6232 179.5 73.5Z" fill="#1D1D1D"/>
<path d="M842.5 468.5C843.16 469.16 843.82 469.82 844.5 470.5C843.547 470.549 842.595 470.598 841.613 470.649C840.359 470.723 839.105 470.798 837.812 470.875C835.95 470.98 835.95 470.98 834.051 471.086C830.789 471.466 828.484 472.221 825.5 473.5C823.188 473.125 823.188 473.125 821.5 472.5C827.941 467.593 834.594 467.618 842.5 468.5Z" fill="#7D7D7E"/>
<path d="M643.5 416.5C644.49 417.16 645.48 417.82 646.5 418.5C645.023 423.177 645.023 423.177 642.375 424.812C641.447 425.153 641.447 425.153 640.5 425.5C640.17 424.51 639.84 423.52 639.5 422.5C638.51 422.17 637.52 421.84 636.5 421.5C641.25 417.625 641.25 417.625 643.5 416.5Z" fill="#0B0B0D"/>
<path d="M426.5 394.5C429.8 394.83 433.1 395.16 436.5 395.5C434.52 396.49 434.52 396.49 432.5 397.5C433.16 399.15 433.82 400.8 434.5 402.5C433.84 403.16 433.18 403.82 432.5 404.5C431.491 403.404 430.493 402.298 429.5 401.188C428.665 400.265 428.665 400.265 427.812 399.324C426.5 397.5 426.5 397.5 426.5 394.5Z" fill="#AAB5B7"/>
<path d="M818.5 451.5C819.156 453.254 819.156 453.254 819.5 455.5C818.469 457.465 818.469 457.465 817 459.438C814.776 462.63 814.776 462.63 814.688 466.5C814.956 467.16 815.224 467.82 815.5 468.5C814.51 468.5 813.52 468.5 812.5 468.5C811.312 465.75 811.312 465.75 810.5 462.5C811.562 460.562 811.562 460.562 813.5 458.5C814.409 457.26 815.304 456.009 816.188 454.75C816.951 453.678 817.714 452.605 818.5 451.5Z" fill="#3E3E3A"/>
<path d="M829.25 458.812C830.364 459.153 830.364 459.153 831.5 459.5C831.17 460.16 830.84 460.82 830.5 461.5C831.747 461.573 831.747 461.573 833.02 461.648C834.106 461.723 835.193 461.798 836.312 461.875C837.391 461.944 838.47 462.014 839.582 462.086C842.5 462.5 842.5 462.5 845.5 464.5C838.9 464.5 832.3 464.5 825.5 464.5C825.17 463.84 824.84 463.18 824.5 462.5C823.84 462.17 823.18 461.84 822.5 461.5C824.955 459.227 825.838 458.425 829.25 458.812Z" fill="#373636"/>
<path d="M834.812 463.25C836.508 463.211 836.508 463.211 838.238 463.172C841.778 463.528 843.633 464.456 846.5 466.5C845.51 466.995 845.51 466.995 844.5 467.5C843.51 467.17 842.52 466.84 841.5 466.5C838.927 466.43 836.384 466.406 833.812 466.438C833.111 466.442 832.409 466.447 831.686 466.451C829.957 466.463 828.228 466.481 826.5 466.5C826.5 465.84 826.5 465.18 826.5 464.5C829.301 463.099 831.689 463.292 834.812 463.25Z" fill="#444444"/>
<path d="M183.5 210.5C184.16 210.83 184.82 211.16 185.5 211.5C185.5 212.16 185.5 212.82 185.5 213.5C184.84 213.5 184.18 213.5 183.5 213.5C183.067 214.397 183.067 214.397 182.625 215.312C181.5 217.5 181.5 217.5 179.5 220.5C179.83 221.16 180.16 221.82 180.5 222.5C178.19 224.48 175.88 226.46 173.5 228.5C172.84 228.17 172.18 227.84 171.5 227.5C171.864 227.027 172.227 226.554 172.602 226.066C176.446 221.009 180.028 215.819 183.5 210.5Z" fill="#262626"/>
<path d="M182.5 171.5C182.83 172.82 183.16 174.14 183.5 175.5C185.15 175.17 186.8 174.84 188.5 174.5C189.625 180.125 189.625 180.125 188.5 183.5C187.84 183.5 187.18 183.5 186.5 183.5C185.84 181.85 185.18 180.2 184.5 178.5C183.84 178.5 183.18 178.5 182.5 178.5C182.5 176.19 182.5 173.88 182.5 171.5Z" fill="#4C4C4B"/>
<path d="M131.5 537.5C136.078 538.263 136.078 538.263 138.281 539.5C141.133 540.785 143.637 540.922 146.75 541.125C147.828 541.2 148.905 541.275 150.016 541.352C150.835 541.401 151.655 541.45 152.5 541.5C152.5 541.83 152.5 542.16 152.5 542.5C149.53 542.5 146.56 542.5 143.5 542.5C143.5 543.16 143.5 543.82 143.5 544.5C138.891 543.183 135.359 541.348 131.5 538.5C131.5 538.17 131.5 537.84 131.5 537.5Z" fill="#DCDDDB"/>
<path d="M169.5 141.5C171.402 147.206 170.95 153.7 169.5 159.5C169.161 161.499 168.826 163.499 168.5 165.5C168.17 165.5 167.84 165.5 167.5 165.5C167.446 162.437 167.406 159.375 167.375 156.312C167.358 155.448 167.342 154.584 167.324 153.693C167.29 149.178 167.344 145.599 169.5 141.5Z" fill="#434343"/>
<path d="M626.5 109.5C627.629 110.433 628.753 111.371 629.875 112.312C630.501 112.835 631.128 113.357 631.773 113.895C633.5 115.5 633.5 115.5 635.5 118.5C633.52 119.49 633.52 119.49 631.5 120.5C630.658 119.235 629.827 117.962 629 116.688C628.304 115.626 628.304 115.626 627.594 114.543C626.5 112.5 626.5 112.5 626.5 109.5Z" fill="#ACB0B0"/>
<path d="M123.5 524.5C125.676 527.349 127.709 530.261 129.688 533.25C130.217 534.049 130.747 534.848 131.293 535.672C131.691 536.275 132.09 536.878 132.5 537.5C128.913 536.28 126.816 535.242 124.625 532.125C124.195 531.54 123.764 530.955 123.32 530.352C122.283 528.01 122.656 526.865 123.5 524.5Z" fill="#E0E0E0"/>
<path d="M162.5 135.5C162.83 135.5 163.16 135.5 163.5 135.5C163.809 136.614 164.119 137.727 164.437 138.875C165.323 142.295 165.323 142.295 166.5 144.5C165.84 144.5 165.18 144.5 164.5 144.5C163.51 147.965 163.51 147.965 162.5 151.5C162.17 151.5 161.84 151.5 161.5 151.5C161.389 146.042 161.583 140.885 162.5 135.5Z" fill="#252525"/>
<path d="M820.5 448.5C821.49 448.5 822.48 448.5 823.5 448.5C823.5 451.5 823.5 454.5 823.5 457.5C822.51 457.83 821.52 458.16 820.5 458.5C820.17 459.49 819.84 460.48 819.5 461.5C819.17 460.84 818.84 460.18 818.5 459.5C818.809 458.943 819.119 458.386 819.438 457.812C820.886 454.659 820.632 451.925 820.5 448.5Z" fill="#484746"/>
<path d="M817.5 464.5C819.81 464.5 822.12 464.5 824.5 464.5C824.5 465.16 824.5 465.82 824.5 466.5C822.188 468.688 822.188 468.688 819.5 470.5C818.51 470.17 817.52 469.84 816.5 469.5C816.83 467.85 817.16 466.2 817.5 464.5Z" fill="#313130"/>
<path d="M845.5 465.5C851.857 465.989 851.857 465.989 854.938 468.438C856.5 470.5 856.5 470.5 856.5 472.5C852.723 470.687 849.127 468.593 845.5 466.5C845.5 466.17 845.5 465.84 845.5 465.5Z" fill="#323433"/>
<path d="M718.5 235.5C725.983 241.65 725.983 241.65 728.5 245.5C727.18 245.5 725.86 245.5 724.5 245.5C724.16 244.572 724.16 244.572 723.812 243.625C722.121 240.886 720.508 240.45 717.5 239.5C717.83 238.18 718.16 236.86 718.5 235.5Z" fill="#B2BBBD"/>
<path d="M621.5 31.5001C617.888 33.9363 614.256 36.2909 610.5 38.5001C610.17 37.5101 609.84 36.5201 609.5 35.5001C617.802 29.6511 617.802 29.6511 621.5 31.5001Z" fill="#161616"/>
<path d="M193.5 484.5C193.83 484.5 194.16 484.5 194.5 484.5C194.358 486.229 194.211 487.959 194.062 489.688C193.981 490.65 193.9 491.613 193.816 492.605C193.523 495.286 193.073 497.866 192.5 500.5C190.5 497.5 190.5 497.5 190.707 495.125C190.907 494.259 191.107 493.392 191.312 492.5C191.504 491.634 191.697 490.767 191.894 489.875C192.356 488.063 192.909 486.274 193.5 484.5Z" fill="#B4B4B4"/>
<path d="M636.5 435.5C637.5 438.5 637.5 438.5 636.062 441.688C635.289 443.08 635.289 443.08 634.5 444.5C633.51 443.84 632.52 443.18 631.5 442.5C632.75 438.847 633.171 437.719 636.5 435.5Z" fill="#F0F1EE"/>
<path d="M99.5 410.5C104.945 411.985 104.945 411.985 110.5 413.5C109.51 413.83 108.52 414.16 107.5 414.5C107.5 415.82 107.5 417.14 107.5 418.5C106.51 418.17 105.52 417.84 104.5 417.5C104.5 416.51 104.5 415.52 104.5 414.5C102.037 412.855 102.037 412.855 99.5 411.5C99.5 411.17 99.5 410.84 99.5 410.5Z" fill="#0F0F0F"/>
<path d="M584.5 268.5C584.5 272.552 582.886 274.295 580.5 277.5C579.51 278.16 578.52 278.82 577.5 279.5C576.51 279.17 575.52 278.84 574.5 278.5C575.222 277.964 575.944 277.428 576.688 276.875C579.748 274.291 582.012 271.628 584.5 268.5Z" fill="#EDECED"/>
<path d="M649.125 35.375C649.909 35.4163 650.692 35.4575 651.5 35.5C651.5 36.49 651.5 37.48 651.5 38.5C650.51 38.83 649.52 39.16 648.5 39.5C647.51 40.985 647.51 40.985 646.5 42.5C645.84 42.17 645.18 41.84 644.5 41.5C644.5 37.0946 644.534 35.5936 649.125 35.375Z" fill="#212020"/>
<path d="M670.5 510.5C671.16 510.5 671.82 510.5 672.5 510.5C672.83 513.14 673.16 515.78 673.5 518.5C672.51 518.5 671.52 518.5 670.5 518.5C670.119 516.174 669.787 513.839 669.5 511.5C669.83 511.17 670.16 510.84 670.5 510.5Z" fill="#D0D0D0"/>
<path d="M431.5 396.5C438.023 396.131 438.023 396.131 440.438 398C440.788 398.495 441.139 398.99 441.5 399.5C438.152 400.552 436.909 400.7 433.688 399.125C432.966 398.589 432.244 398.052 431.5 397.5C431.5 397.17 431.5 396.84 431.5 396.5Z" fill="#12171A"/>
<path d="M715.5 73.5C716.939 73.7836 718.376 74.0772 719.812 74.375C720.613 74.5374 721.414 74.6998 722.238 74.8672C724.5 75.5 724.5 75.5 727.5 77.5C726.84 77.5 726.18 77.5 725.5 77.5C725.17 78.16 724.84 78.82 724.5 79.5C721.53 77.85 718.56 76.2 715.5 74.5C715.5 74.17 715.5 73.84 715.5 73.5Z" fill="#D4D4D4"/>
<path d="M187.5 62.5C188.16 62.83 188.82 63.16 189.5 63.5C187.52 64.49 187.52 64.49 185.5 65.5C185.83 66.82 186.16 68.14 186.5 69.5C185.18 69.83 183.86 70.16 182.5 70.5C182.17 69.18 181.84 67.86 181.5 66.5C183.48 65.18 185.46 63.86 187.5 62.5Z" fill="#1E1E1E"/>
<path d="M145.5 389.5C146.625 391.25 146.625 391.25 147.5 393.5C146.625 395.75 146.625 395.75 145.5 397.5C144.51 397.5 143.52 397.5 142.5 397.5C142.756 395.157 143.093 392.822 143.5 390.5C144.16 390.17 144.82 389.84 145.5 389.5Z" fill="#212121"/>
<path d="M787.5 509.5C787.83 510.16 788.16 510.82 788.5 511.5C786.044 516.5 786.044 516.5 784.5 518.5C783.51 518.83 782.52 519.16 781.5 519.5C781.5 518.51 781.5 517.52 781.5 516.5C782.16 516.5 782.82 516.5 783.5 516.5C783.789 515.716 784.077 514.933 784.375 514.125C785.5 511.5 785.5 511.5 787.5 509.5Z" fill="#363636"/>
<path d="M794.5 495.5C794.83 495.5 795.16 495.5 795.5 495.5C794.75 503.125 794.75 503.125 792.5 506.5C791.84 504.85 791.18 503.2 790.5 501.5C790.974 501.067 791.449 500.634 791.938 500.188C793.737 498.477 793.737 498.477 794.5 495.5Z" fill="#434343"/>
<path d="M818.5 451.5C819.25 453.125 819.25 453.125 819.5 455.5C817.688 458.75 817.688 458.75 815.5 461.5C814.84 461.5 814.18 461.5 813.5 461.5C814.656 457.588 815.855 454.625 818.5 451.5Z" fill="#666563"/>
<path d="M580.5 303.5C582.48 303.5 584.46 303.5 586.5 303.5C587.16 304.82 587.82 306.14 588.5 307.5C586.75 308.188 586.75 308.188 584.5 308.5C582.25 307.188 582.25 307.188 580.5 305.5C580.5 304.84 580.5 304.18 580.5 303.5Z" fill="#150C08"/>
<path d="M179.5 67.5C180.82 67.83 182.14 68.16 183.5 68.5C183.17 69.82 182.84 71.14 182.5 72.5C180.85 72.5 179.2 72.5 177.5 72.5C178.16 70.85 178.82 69.2 179.5 67.5Z" fill="#2F2F2F"/>
<path d="M782.5 518.5C782.83 519.82 783.16 521.14 783.5 522.5C780.53 524.975 780.53 524.975 777.5 527.5C777.17 526.51 776.84 525.52 776.5 524.5C777.49 524.5 778.48 524.5 779.5 524.5C779.5 523.51 779.5 522.52 779.5 521.5C780.16 521.5 780.82 521.5 781.5 521.5C781.83 520.51 782.16 519.52 782.5 518.5Z" fill="#494949"/>
<path d="M829.5 457.5C825.045 460.47 825.045 460.47 820.5 463.5C820.17 462.84 819.84 462.18 819.5 461.5C821.84 457.99 825.286 455.393 829.5 457.5Z" fill="#D2D1CF"/>
<path d="M69.5 441.5C68.5 443.5 68.5 443.5 65.6875 444.687C62.6404 445.464 61.3625 445.601 58.5 444.5C61.2824 440.326 64.9656 441.277 69.5 441.5Z" fill="#525252"/>
<path d="M447 0C452.081 0.247868 454.845 1.90517 458.453 5.27344C462.736 10.054 463.475 15.1861 463.305 21.3555C462.798 25.7533 461.486 29.844 460 34C460.629 33.6623 461.258 33.3245 461.906 32.9766C472.718 27.343 483.727 24.6157 495.875 28.125C500.339 29.8331 503.639 32.6607 507 36C506.875 37.75 506.875 37.75 506 40C502.938 42.25 502.938 42.25 500 44C500.561 44.1096 501.121 44.2191 501.699 44.332C521.653 48.2963 541.863 53.06 560.283 61.9175C563.561 63.4852 565.249 64 569 64C569.311 62.9481 569.311 62.9481 569.629 61.875C571.898 54.8885 574.758 50.1386 580 45C581.159 48.4782 580.708 50.459 580 54C581.195 52.5711 581.195 52.5711 582.414 51.1133C583.484 49.8461 584.554 48.5792 585.625 47.3125C586.147 46.6867 586.669 46.0608 587.207 45.416C590.533 41.4951 593.878 38.0883 598 35C598.66 35 599.32 35 600 35C597.667 39.6667 595.333 44.3333 593 49C593.536 48.4663 594.072 47.9327 594.625 47.3828C599.791 42.4715 605.114 38.3754 611.125 34.5625C612.109 33.9256 612.109 33.9256 613.113 33.2759C617.655 30.469 621.767 29.0663 627 28C627 28.66 627 29.32 627 30C625.469 31.5078 625.469 31.5078 623.5 33.125C622.525 33.9332 622.525 33.9332 621.531 34.7578C621.026 35.1677 620.521 35.5777 620 36C620.724 35.5063 621.449 35.0126 622.195 34.5039C623.162 33.8632 624.129 33.2226 625.125 32.5625C626.076 31.9244 627.028 31.2863 628.008 30.6289C631.098 28.9465 633.524 28.3662 637 28C633.108 32.1512 628.817 35.5723 624.305 39.0352C622.143 40.878 620.593 42.6622 619 45C619.701 44.4689 620.402 43.9378 621.125 43.3906C629.725 36.9876 636.962 31.7917 648 32C644.5 35.5 644.5 35.5 641 39C641.713 38.6391 642.426 38.2781 643.16 37.9062C648.701 35.2214 652.819 33.3132 659 34C656.499 36.9102 653.803 38.1679 650.312 39.6875C649.319 40.1245 648.325 40.5615 647.301 41.0117C646.542 41.3379 645.782 41.664 645 42C647.03 41.5332 648.94 41.0241 650.875 40.2461C659.868 36.8241 669.54 37.7315 679 38C679 38.66 679 39.32 679 40C677.463 40.29 677.463 40.29 675.895 40.5859C674.534 40.8487 673.173 41.1117 671.812 41.375C671.139 41.5013 670.465 41.6277 669.771 41.7578C665.986 42.4965 662.524 43.4262 659 45C659.585 44.8556 660.17 44.7113 660.773 44.5625C667.063 43.2025 673.15 42.7807 679.562 42.75C680.759 42.7365 680.759 42.7365 681.98 42.7227C687.752 42.7524 687.752 42.7524 690 45C687.704 46.1481 685.923 46.3077 683.375 46.5625C682.558 46.6463 681.74 46.7301 680.898 46.8164C679.959 46.9073 679.959 46.9073 679 47C680.039 47.098 681.078 47.1959 682.148 47.2969C690.329 48.1468 697.532 49.3019 705 53C705 53.33 705 53.66 705 54C698.07 54 691.14 54 684 54C684 54.33 684 54.66 684 55C685.088 55.098 686.176 55.1959 687.297 55.2969C699.345 56.4808 710.358 58.1111 720 66C715.497 67.5009 711.586 65.7228 707.156 64.4707C702.615 63.2459 698.705 62.7968 694 63C695.237 63.2269 696.475 63.4537 697.75 63.6875C703.819 65.0351 709.346 67.4597 715 70C715.735 70.3197 716.47 70.6394 717.227 70.9688C724.161 74.1736 730.611 78.687 735 85C734.67 85.66 734.34 86.32 734 87C733.406 86.5295 732.811 86.059 732.199 85.5742C726.036 80.9446 720.549 78.507 713 77C713.701 77.3635 714.402 77.727 715.125 78.1016C727.38 84.5953 739.83 94.8825 746 107.812C746 108.472 746 107.32 746 108C746.68 108 745.34 108 746 108C746 108.68 746 107.34 746 108C746.572 108.254 745.444 107.754 746 108C741 103 735.567 100.461 732.34 97.7773C730.045 95.8361 730.045 95.8361 727 95C727.835 95.5839 727.835 95.5839 728.688 96.1797C736.288 101.752 742.611 108.59 747 117C746.67 117.66 746.34 118.32 746 119C745.041 117.732 745.041 117.732 744.062 116.438C740.618 112.266 736.334 109.191 732 106C732.804 106.866 733.609 107.733 734.438 108.625C741.484 116.916 748.204 125.852 749 137C746.55 134.079 744.407 131.091 742.375 127.875C738.549 122.028 733.786 117.061 729 112C730.193 114.541 731.253 116.29 733.125 118.438C739.408 125.787 746.569 136.102 747.188 146C747.126 146.66 747.064 147.32 747 148C744.178 144.475 742.017 140.673 739.812 136.75C739.26 135.775 739.26 135.775 738.697 134.781C737.796 133.189 736.898 131.595 736 130C737.02 135.124 739.497 139.756 741.625 144.492C743.475 149.213 744.143 153.64 744.188 158.688C744.202 159.434 744.216 160.18 744.23 160.949C744 163 744 163 742 166C741.01 164.02 740.02 162.04 739 160C738.67 165.61 738.34 171.22 738 177C737.01 177.33 736.02 177.66 735 178C734.194 180.106 734.194 180.106 733.812 182.562C733.654 183.389 733.495 184.215 733.332 185.066C733.222 185.704 733.113 186.343 733 187C732.34 187 731.68 187 731 187C730.67 188.32 730.34 189.64 730 191C729.01 191 728.02 191 727 191C726.67 189.68 726.34 188.36 726 187C725.34 187 724.68 187 724 187C724 188.98 724 190.96 724 193C723.34 193.33 722.68 193.66 722 194C721.67 193.34 721.34 192.68 721 192C720.67 193.98 720.34 195.96 720 198C718 197 718 197 717.254 194.996C717.026 194.152 716.798 193.307 716.562 192.438C715.267 187.845 713.729 183.446 712 179C712.162 179.963 712.325 180.926 712.492 181.918C713.129 186.387 713.147 190.806 713.125 195.312C713.129 196.123 713.133 196.933 713.137 197.768C713.127 203.746 713.127 203.746 712 206C710.68 206 709.36 206 708 206C706.254 203.381 705.613 201.962 705 199C703.392 211.505 709.581 221.239 716.875 230.812C728.33 245.268 740.913 253.981 759 258C755.705 261.974 752.054 263.306 747.25 264.75C746.553 264.97 745.855 265.191 745.137 265.418C743.428 265.956 741.714 266.48 740 267C740.969 267.887 741.939 268.774 742.938 269.688C751.834 278.638 761.503 292.116 762.098 305.141C762.065 307.094 762.033 309.047 762 311C758.809 309.311 756.328 307.446 753.82 304.883C753.289 304.343 752.758 303.803 752.211 303.247C751.612 302.63 751.612 302.63 751 302C751.422 303.146 751.843 304.292 752.277 305.473C752.831 307.002 753.384 308.532 753.938 310.062C754.215 310.815 754.493 311.567 754.779 312.342C756.428 316.931 757.403 321.166 758 326C758.33 326.33 758.66 326.66 759 327C759.254 331.286 759.185 335.583 759.188 339.875C759.2 341.085 759.212 342.296 759.225 343.543C759.228 345.281 759.228 345.281 759.23 347.055C759.235 348.122 759.239 349.189 759.243 350.289C759 353 759 353 757 356C755.02 351.38 753.04 346.76 751 342C750.879 343.123 750.758 344.246 750.633 345.402C749.784 353.06 748.814 360.501 747 368C746.612 370.33 746.299 372.657 746 375C746.33 375 746.66 375 747 375C747.33 376.98 747.66 378.96 748 381C748.619 380.175 749.238 379.35 749.875 378.5C750.576 377.675 751.277 376.85 752 376C752.66 376 753.32 376 754 376C754 376.99 754 377.98 754 379C754.33 378.34 754.66 377.68 755 377C755.66 377 756.32 377 757 377C756.67 378.65 756.34 380.3 756 382C757.32 380.68 758.64 379.36 760 378C760 378.99 760 379.98 760 381C760.99 380.34 761.98 379.68 763 379C763 379.99 763 380.98 763 382C763.99 381.34 764.98 380.68 766 380C766.99 380 767.98 380 769 380C769.33 380.99 769.66 381.98 770 383C770.763 383 771.526 383 772.312 383C778 383 778 383 781 384C780.34 384.99 779.68 385.98 779 387C779.908 386.649 780.815 386.299 781.75 385.938C786.458 384.579 788.808 385.754 793 388C791.68 388.33 790.36 388.66 789 389C790.65 389.33 792.3 389.66 794 390C794 390.33 794 390.66 794 391C794.687 391.133 795.374 391.266 796.082 391.402C796.983 391.579 797.884 391.756 798.812 391.938C800.152 392.199 800.152 392.199 801.52 392.465C804 393 804 393 807 394C807 394.99 807 395.98 807 397C808.132 397.254 809.264 397.508 810.43 397.77C811.912 398.117 813.393 398.464 814.875 398.812C815.621 398.978 816.368 399.144 817.137 399.314C822.773 400.66 822.773 400.66 825 404C823.35 404.33 821.7 404.66 820 405C823.3 405.99 826.6 406.98 830 408C828.68 408.66 827.36 409.32 826 410C826.928 410.681 826.928 410.681 827.875 411.375C830 413 830 413 832 415C834.362 416.252 836.723 417.455 839.125 418.625C840.113 419.112 840.113 419.112 841.121 419.609C842.746 420.41 844.373 421.205 846 422C845.67 423.32 845.34 424.64 845 426C846.104 426.853 846.104 426.853 847.23 427.723C852.744 432.085 857.299 436.002 861 442C859.02 441.34 857.04 440.68 855 440C855.804 440.577 856.609 441.155 857.438 441.75C860.094 444.083 860.467 444.694 861 448C861.66 448.99 862.32 449.98 863 451C862.402 450.691 861.804 450.381 861.188 450.062C858.91 448.898 858.91 448.898 856 448C856.763 448.577 857.526 449.155 858.312 449.75C860.662 451.717 862.293 453.485 864 456C863.67 456.66 863.34 457.32 863 458C860.69 456.35 858.38 454.7 856 453C856.471 453.519 856.941 454.039 857.426 454.574C864.187 462.147 864.187 462.147 866 466C865.67 466.66 865.34 467.32 865 468C863.68 467.01 862.36 466.02 861 465C861.33 466.65 861.66 468.3 862 470C862.911 469.99 863.821 469.979 864.76 469.968C898.166 469.635 898.166 469.635 912 472C912.33 472.99 912.66 473.98 913 475C907.733 476.084 902.672 476.135 897.323 476.114C895.888 476.114 895.888 476.114 894.424 476.114C891.275 476.113 888.126 476.106 884.977 476.098C882.788 476.096 880.599 476.094 878.411 476.093C872.66 476.09 866.91 476.08 861.159 476.069C855.287 476.058 849.415 476.054 843.543 476.049C832.029 476.038 821.014 491.521 809.5 491.5C809.203 493.401 807 493 806 496C805.34 496 804.68 496 804 496C803.897 496.784 803.794 497.567 803.688 498.375C803 501 803 501 800 503C799.883 497.486 800.208 492.361 801.188 486.938C801.318 486.207 801.448 485.477 801.582 484.725C803.01 477.213 805.404 470.183 808 463C808.61 461.189 809.215 459.377 809.812 457.562C808 458 804.688 464.438 804.688 464.438C805.072 463.173 804.31 465.677 804.688 464.438C804.322 465.673 804.322 465.673 803.949 466.934C803.636 467.616 803.323 468.297 803 469C802.01 469.33 801.02 469.66 800 470C799.67 472.64 799.34 475.28 799 478C798.2 496.524 792.401 512.475 778.855 526.379C772.064 532.312 766.353 533.784 757.301 533.414C752.761 532.845 749.673 531.689 746 529C745.336 528.526 744.672 528.051 743.988 527.562C732.148 518.181 726.735 503.614 725 489C724.543 483.674 724.255 478.339 724 473C722.925 494.445 722.925 494.445 728 515C728.374 515.924 728.748 516.849 729.133 517.801C731.748 523.645 735.186 527.811 740 532C738.305 535.852 738.305 535.852 735.562 537.188C734.717 537.456 733.871 537.724 733 538C729.772 538.746 729.133 540.5 726.5 542.5C723.867 544.5 718.128 545.951 711.5 547C700.074 547.475 688.353 545.828 680.062 538.223C672.279 530.019 669.325 519.832 667 509C665.709 521.193 670.577 534.379 678 544C680.899 546.962 684.079 549.339 687.438 551.75C688.211 552.369 701.5 556 703 556C708 555 694.5 558.5 694.5 558.5C687.788 557.838 678.005 553.067 673.473 547.945C668 540.716 668 540.716 668 537C667.34 537.33 666.68 537.66 666 538C654.82 539.168 645.812 536.653 636.688 530.125C635.445 529.1 634.215 528.059 633 527C632.419 526.546 631.837 526.093 631.238 525.625C621.41 517.144 615.858 501.479 614 489C614 484.71 614 480.42 614 476C510.38 476 406.76 476 300 476C300 481.94 300 487.88 300 494C298.479 505.889 294.002 516.059 286 525C285.416 525.677 284.832 526.354 284.23 527.051C276.85 535.052 268.78 541.111 257.763 541.854C255.399 541.935 253.041 541.965 250.676 541.965C247.175 541.73 247.175 541.73 245 543C242.667 543.04 240.833 544.043 238.5 544L243.336 533.5C248 520 244.233 512.149 244 501C243.781 502.174 243.562 503.349 243.336 504.559C239.775 522.951 235.86 541.298 219.938 553.062C210.402 559.139 200.229 561.089 189 560C185.356 558.826 182.254 557.31 179.59 554.527C177.613 552.628 175.454 551.716 173 550.5C172.157 550.075 170.5 549.5 170.5 549.5C170.5 549.5 167.209 548.937 164.5 548.5C164.63 548.521 166 547 169.5 542.5C174 538.5 188.193 506.587 190 490C189.709 491.004 189.417 492.008 189.117 493.043C184.138 509.819 175.5 526.5 168.5 534.5C160.5 545 143.864 546.116 134.289 543.164C126.222 539.062 122.019 532.105 118.823 523.887C117.326 518.633 115.88 511.923 116 506.5C115.999 507.645 116.001 505.389 116 506.5C116.064 500.49 116.305 493.359 117.625 487.5C118.247 484.366 123 477.5 120 472C120 477.5 118 478.5 118 478.5C117.67 473.22 117.34 464.44 117 459C116.67 462.3 115.5 467 115.5 467C115.84 467 115.17 467 115.5 467C115.625 467.66 115.379 466.359 115.5 467C114.51 461.892 115.015 461.477 113.5 456.5C112.1 454 109 454 109 454C116.5 472.5 113.762 476.037 112.512 484.18C111.787 489.587 111.697 495.052 111.5 500.5C111.566 498.797 111.435 502.17 111.5 500.5C111.395 503.23 111.5 511.5 112 514.5C109.647 512.863 107.956 509.915 106.5 507.5C105.83 503.345 105.485 498.759 105.625 494.562C105.639 493.443 105.653 492.323 105.668 491.17C105.761 485.935 106.134 481.197 107 476C72.02 476 37.04 476 1 476C0.505 474.515 0.505 474.515 0 473C10.3223 471.104 20.4829 470.629 30.9414 470.468C32.9585 470.434 34.9753 470.389 36.9922 470.344C38.1715 470.325 39.3508 470.306 40.5659 470.287C44.3277 469.973 46.6024 470.646 50.1875 469.5C50.825 469.33 49.5688 469.665 50.1875 469.5C49.1975 469.83 49.5625 467.5 43 467C43.5 465 54 454 54 454C53.1699 454.716 54.8057 453.305 54 454C53.3213 454.58 54.6587 453.437 54 454C54.33 453.67 54.66 453.34 55 453C52.69 453.66 50.38 454.32 48 455C48.7219 454.319 49.4438 453.639 50.1875 452.938C52.7349 450.397 54.7626 447.654 56.8086 444.703C60.326 439.675 63.6021 435.468 69.1875 432.812C69.9029 432.468 70.6184 432.124 71.3555 431.77C71.8982 431.516 72.4409 431.262 73 431C72.67 430.34 72.34 429.68 72 429C77.625 426 77.625 426 81 426C81 425.34 81 424.68 81 424C83.64 423.34 86.28 422.68 89 422C86.36 421.67 83.72 421.34 81 421C84.6372 418.575 86.857 418.613 91.1875 418.375C93.096 418.263 93.096 418.263 95.043 418.148C96.0188 418.099 96.9946 418.05 98 418C97.3813 417.381 96.7625 416.762 96.125 416.125C94.75 414.75 93.375 413.375 92 412C93.4582 411.832 94.9165 411.666 96.375 411.5C97.1871 411.407 97.9992 411.314 98.8359 411.219C101 411 101 411 103 411C102.01 410.01 101.02 409.02 100 408C101.65 408.33 103.3 408.66 105 409C104.67 408.34 104.34 407.68 104 407C105.98 407.66 107.96 408.32 110 409C108.02 407.02 108.02 407.02 106 405C106.33 404.34 106.66 403.68 107 403C107.99 403 108.98 403 110 403C113.161 401.741 113.161 401.741 115 399C116.65 400.32 118.3 401.64 120 403C119.01 401.35 118.02 399.7 117 398C119.972 399.125 122.334 400.223 125 402C124.505 401.381 124.01 400.762 123.5 400.125C122 398 122 398 122 396C125 397.5 125 397.5 128 399C128.33 397.68 128.66 396.36 129 395C130.32 395.33 131.64 395.66 133 396C133.33 394.35 133.66 392.7 134 391C135.32 391.66 136.64 392.32 138 393C138 392.01 138 391.02 138 390C138.99 390 139.98 390 141 390C141.99 389.67 142.98 389.34 144 389C144.33 389 144.66 389 145 389C145.99 388.67 146.98 388.34 148 388C148 387.01 148 386.02 148 385C149.98 386.485 149.98 386.485 152 388C152.33 387.34 152.66 386.68 153 386C154.32 386 155.64 386 157 386C157 385.34 157 384.68 157 384C156.01 383.134 155.02 382.267 154 381.375C150.207 377.713 148.003 373.67 145.688 369C145.182 367.986 145.182 367.986 144.666 366.951C139.092 355.344 138.945 343.587 141 331C140.529 331.543 140.059 332.085 139.574 332.645C138.952 333.36 138.329 334.075 137.688 334.812C137.073 335.52 136.458 336.228 135.824 336.957C134.267 338.701 132.673 340.368 131 342C128.271 333.812 129.41 324.426 132.645 316.555C134.91 312.284 137.817 308.621 141 305C139.062 305.141 137.125 305.288 135.188 305.438C134.109 305.519 133.03 305.6 131.918 305.684C128.94 305.902 128.94 305.902 126 307C126.491 299.313 129.842 293.369 134.812 287.562C137.216 285.308 137.216 285.308 137 283C134.922 281.319 134.922 281.319 132.312 279.625C131.401 279.001 130.49 278.377 129.551 277.734C128.709 277.162 127.867 276.59 127 276C123.048 273.2 121.652 271.498 120 267C120.955 266.576 121.91 266.152 122.895 265.715C150.839 253.127 167.157 233.149 183.102 207.594C184.819 204.849 186.564 202.137 188.398 199.469C189.051 198.51 189.703 197.551 190.375 196.562C190.94 195.759 191.504 194.956 192.086 194.129C193.282 192.004 193.282 192.004 192.227 189.777C191.121 188.061 191.121 188.061 190 187C189.67 187.99 189.34 188.98 189 190C188.01 188.02 187.02 186.04 186 184C185.67 184.66 185.34 185.32 185 186C184.34 186 183.68 186 183 186C182.01 183.525 182.01 183.525 181 181C180.34 181.99 179.68 182.98 179 184C175.258 176.117 174.018 168.651 173 160C172.34 165.61 171.68 171.22 171 177C170.34 176.67 169.68 176.34 169 176C169 174.68 169 173.36 169 172C168.34 172 167.68 172 167 172C166.67 170.02 166.34 168.04 166 166C165.34 166.66 164.68 167.32 164 168C164 163.05 164 158.1 164 153C163.34 154.65 162.68 156.3 162 158C161.67 158 161.34 158 161 158C161 155.03 161 152.06 161 149C160.34 150.65 159.68 152.3 159 154C158.67 154 158.34 154 158 154C157.471 137.872 162.947 124.694 171 111C166.514 117.8 162.471 124.627 159 132C157.526 127.578 159.049 125.135 161 121C161 120.67 161 120.34 161 120C160.578 120.577 160.157 121.155 159.723 121.75C159.175 122.493 158.627 123.235 158.062 124C157.517 124.743 156.972 125.485 156.41 126.25C155.945 126.827 155.479 127.405 155 128C154.67 128 154.34 128 154 128C154.462 109.4 165.21 94.5581 178 82C180.905 79.5184 183.872 77.1933 187 75C179.159 79.2458 172.402 83.7756 166 90C165.34 89.67 164.68 89.34 164 89C164.459 88.4805 164.918 87.961 165.391 87.4258C168.684 83.6829 171.93 79.9302 175 76C174.051 76.825 173.103 77.65 172.125 78.5C169.25 81 169.25 81 167 81C171.797 70.6179 183.686 63.7967 194.055 59.832C195.675 59.3585 197.305 58.9184 198.949 58.5352C201.158 57.9587 202.995 57.0815 205 56C198.837 56.43 193.602 58.5593 187.891 60.8438C185.949 61.6203 183.984 62.3388 182 63C184.756 56.5418 191.493 52.8258 197.641 49.875C201.764 48.3459 206.04 47.497 210.34 46.6133C212.908 46.2688 212.908 46.2688 214 45C208.65 45.5702 203.322 46.2073 198 47C199 45 199 45 201.484 44C212.987 40.4776 223.955 38.5655 236 39C236 38.34 236 37.68 236 37C223.625 37.495 223.625 37.495 211 38C214.654 34.3463 218.866 34.7952 223.73 34.6836C224.481 34.6628 225.231 34.642 226.004 34.6206C228.399 34.5553 230.793 34.4963 233.188 34.4375C234.812 34.3943 236.436 34.3507 238.061 34.3066C242.04 34.1996 246.02 34.0983 250 34C246.258 33.3286 242.618 32.8477 238.82 32.6836C237.428 32.6208 237.428 32.6208 236.008 32.5566C235.056 32.5173 234.105 32.478 233.125 32.4375C232.15 32.3943 231.176 32.3511 230.172 32.3066C227.781 32.2012 225.391 32.0991 223 32C226.939 28.0612 231.465 27.8683 236.809 27.7695C239.018 27.7735 241.228 27.7881 243.438 27.8125C245.097 27.8135 245.097 27.8135 246.791 27.8145C252.293 27.8441 257.582 28.0255 263 29C261.02 28.01 259.04 27.02 257 26C257 25.67 257 25.34 257 25C267.986 25.886 277.101 29.2386 287 34C281.471 30.0398 275.978 26.2491 270 23C272.713 21.9469 273.909 21.9717 276.734 22.8555C279.83 24.2228 282.923 25.5925 286 27C287.094 27.4679 287.094 27.4679 288.211 27.9453C294.188 30.6535 299.013 34.7899 304 39C301.357 34.8317 298.495 31.1675 295.172 27.5156C294 26 294 26 294 24C302.071 26.5223 307.921 32.4971 313 39C312.567 38.186 312.567 38.186 312.125 37.3555C311.754 36.64 311.382 35.9246 311 35.1875C310.629 34.4798 310.257 33.7721 309.875 33.043C309 31 309 31 309 28C312.588 29.4883 314.601 31.5156 317.125 34.4375C317.808 35.22 318.491 36.0024 319.195 36.8086C321 39 321 39 323 42C323 40.02 323 38.04 323 36C330.229 40.8196 332.256 47.8625 334 56C334.33 53.69 334.66 51.38 335 49C337.526 51.3629 338.888 52.6646 340 56C344.949 54.5241 349.894 53.0385 354.824 51.5C367.971 47.4257 380.966 44.4843 394.609 42.5273C397.247 42.0969 397.247 42.0969 400 40C401.994 34.7643 402.256 30.065 402.125 24.5625C402.111 23.4652 402.111 23.4652 402.098 22.3457C402.074 20.5637 402.039 18.7818 402 17C405.249 15.3756 408.489 15.4476 412 16C416.74 18.127 419.929 21.5069 422.289 26.0859C423.506 29.3628 423.756 32.5222 424 36C433.974 30.6242 440.806 22.3476 444.5 11.625C445.644 7.78141 446.392 3.96245 447 0ZM451 6C450.546 7.485 450.546 7.485 450.082 9C447.815 16.2214 445.672 22.933 441 29C440.545 29.6394 440.09 30.2788 439.621 30.9375C434.375 37.6689 427.218 41.6752 420 46C419.963 44.9868 419.925 43.9736 419.887 42.9297C419.821 41.5781 419.755 40.2265 419.688 38.875C419.665 38.2098 419.642 37.5447 419.619 36.8594C419.299 30.9183 417.839 26.7921 413.562 22.625C410.943 20.643 410.943 20.643 407 21C407.058 21.8714 407.116 22.7428 407.176 23.6406C407.532 33.0564 406.714 41.8189 400.109 49.0781C398.188 50.75 398.188 50.75 395 53C395 52.01 395 51.02 395 50C354.577 48.8525 308.07 76.5011 278 101C277.4 101.484 276.801 101.968 276.183 102.467C262.151 113.864 249.028 126.665 238 141C236.914 142.359 235.827 143.717 234.738 145.074C223.225 159.514 213.604 174.782 204.329 190.72C164.59 258.923 164.59 258.923 131 269C131 269.66 131 270.32 131 271C137.215 275.392 143.491 278.7 151 280C150.022 280.853 150.022 280.853 149.023 281.723C143.94 286.213 139.162 292.633 135 298C144.573 297.828 152.259 295.877 161 292C159.893 293.107 158.741 294.167 157.594 295.23C151.995 300.532 147.009 305.882 142.812 312.375C142.439 312.945 142.065 313.515 141.68 314.102C139.271 317.991 138.794 320.237 138 325C142.62 322.69 147.24 320.38 152 318C151.459 319.545 151.459 319.545 150.906 321.121C145.92 336.095 144.574 350.137 151 365C152.519 367.84 154.138 370.362 156 373C157.238 369.285 156.979 365.919 156.875 362.062C156.755 354.647 157.703 348.096 160 341C160.098 342.016 160.196 343.032 160.297 344.078C161.659 357.072 164.715 375.896 175.219 384.902C175.807 385.265 176.394 385.627 177 386C177.33 385.01 177.66 384.02 178 383C179.485 384.485 179.485 384.485 181 386C181.33 384.02 181.66 382.04 182 380C183.294 380.451 184.585 380.911 185.875 381.375C186.954 381.758 186.954 381.758 188.055 382.148C190 383 190 383 192 385C194.37 382.046 194.37 382.046 194 378C193.32 378 194.66 378 194 378C197 383.5 196.66 383.94 197 387C199.222 384.778 199.926 382.915 201 380C201.99 383.465 201.99 383.465 203 387C203.66 387 204.32 387 205 387C205 384.36 205 381.72 205 379C205.66 379 206.32 379 207 379C207.66 380.65 208.32 382.3 209 384C209.66 383.01 210.32 382.02 211 381C213.36 383.36 213.491 384.779 214 388C215.546 385.681 216.796 383.494 218 381C218.66 382.98 219.32 384.96 220 387C222.36 384.64 222.491 383.221 223 380C223.66 380 224.32 380 225 380C225 382.64 225 385.28 225 388C225.99 387.67 226.98 387.34 228 387C229.219 384.496 229.219 384.496 230 382C230.99 383.485 230.99 383.485 232 385C232.99 384.34 233.98 383.68 235 383C235.33 383.66 235.66 384.32 236 385C236.33 384.67 236.66 384.34 237 384C236.28 388.609 234.687 392.672 233 397C233.66 397 234.32 397 235 397C236.522 394.781 236.522 394.781 238 392.062C240.789 387.106 240.789 387.106 243 386C243 390.29 243 394.58 243 399C244.114 398.031 245.227 397.061 246.375 396.062C248.237 394.442 249.79 393.105 252 392C251.67 393.98 251.34 395.96 251 398C251.99 397.67 252.98 397.34 254 397C253.01 398.98 252.02 400.96 251 403C252.145 402.536 252.145 402.536 253.312 402.062C255.188 401.321 257.087 400.638 259 400C258.67 400.66 258.34 401.32 258 402C259.65 401.67 261.3 401.34 263 401C262.67 401.66 262.34 402.32 262 403C263.32 403.33 264.64 403.66 266 404C264.35 405.65 262.7 407.3 261 409C263.64 409 266.28 409 269 409C266.69 409.99 264.38 410.98 262 412C262 412.33 262 412.66 262 413C265.96 413.33 269.92 413.66 274 414C272.68 414.33 271.36 414.66 270 415C270 415.66 270 416.32 270 417C271.98 417.33 273.96 417.66 276 418C273.36 418.33 270.72 418.66 268 419C268.33 419.66 268.66 420.32 269 421C271.27 421.607 273.568 422.112 275.875 422.562C282.81 423.937 282.81 423.937 286 425C285.34 425.66 284.68 426.32 284 427C286.97 428.98 289.94 430.96 293 433C290.69 432.67 288.38 432.34 286 432C287.933 434.025 289.632 435.421 292 437C289.03 436.34 286.06 435.68 283 435C286.221 438.806 289.402 442.541 293 446C291.68 445.67 290.36 445.34 289 445C290.248 449.964 291.843 453.94 295 458C300.024 460.231 304.977 460.948 310.402 461.645C313.848 462.116 317.243 462.785 320.654 463.456C323.388 463.979 326.126 464.464 328.869 464.935C332.763 465.605 336.648 466.311 340.53 467.047C358.683 470.323 376.522 470.657 394.9 470.669C397.469 470.672 400.038 470.681 402.607 470.691C411.657 470.728 420.708 470.744 429.758 470.741C437.138 470.739 444.516 470.767 451.895 470.823C508.793 471.524 508.793 471.524 564.806 462.539C568.82 461.553 572.86 460.683 576.897 459.8C584.977 458.033 592.99 456.061 601 454C602.051 453.74 603.102 453.48 604.185 453.212C615.437 450.77 622 445 624 443C626 441 627.688 437.031 627.688 437.031L631.5 430.5C630.777 431.499 632.201 429.531 631.5 430.5C630 430.5 628.86 431.48 627.5 432.5C627.5 432.5 630.95 427.555 636 422C635.01 422 634.02 422 633 422C633 418.953 635.347 416.615 637.25 414.5C640.054 411.951 642.8 410.009 646 408C643.138 406.569 641.066 407.4 638 408C644.314 403.323 650.519 400.377 658 398C654.617 397.024 652.434 397.141 649 398C652.827 396.253 656.124 395.651 660.312 395.375C661.915 395.263 661.915 395.263 663.551 395.148C664.359 395.099 665.167 395.05 666 395C666 394.67 666 394.34 666 394C660.39 394 654.78 394 649 394C649 393.34 649 392.68 649 392C651.64 392 654.28 392 657 392C657 391.67 657 391.34 657 391C659.97 390.67 662.94 390.34 666 390C665.34 389.34 664.68 388.68 664 388C664.99 387.67 665.98 387.34 667 387C666.67 386.67 666.34 386.34 666 386C666.99 385.67 667.98 385.34 669 385C669 384.34 669 383.68 669 383C669.784 383.186 670.567 383.371 671.375 383.562C673.971 384.26 673.971 384.26 676 383C675.34 382.34 674.68 381.68 674 381C678.176 379.608 680.135 381.177 684 383C683.691 382.402 683.381 381.804 683.062 381.188C682 379 682 379 681 376C684.27 376.564 685.826 377.5 688 380C688.66 379.67 689.32 379.34 690 379C689.01 377.35 688.02 375.7 687 374C687.33 374.33 687.66 374.66 688 375C690.815 377.277 690.815 377.277 694 377C694 376.01 694 375.02 694 374C695.32 374.99 696.64 375.98 698 377C697.67 375.68 697.34 374.36 697 373C698.65 374.98 700.3 376.96 702 379C702.33 378.34 702.66 377.68 703 377C702.106 374.391 702.106 374.391 701 372C704.796 372.542 706.472 374.201 709 377C709 376.01 709 375.02 709 374C709.306 372.66 709.635 371.325 710 370C711.32 371.32 712.64 372.64 714 374C714.66 373.01 715.32 372.02 716 371C716.66 372.32 717.32 373.64 718 375C718 374.34 718 373.68 718 373C718.66 373 719.32 373 720 373C720.33 373.99 720.66 374.98 721 376C721.33 374.68 721.66 373.36 722 372C723.485 376.455 723.485 376.455 725 381C728.31 377.69 728.504 376.468 729 372C729.33 373.98 729.66 375.96 730 378C731.32 377.67 732.64 377.34 734 377C736.252 369.79 736.306 362.954 736.25 355.438C736.246 354.197 736.242 352.957 736.238 351.679C736.156 342.973 735.63 337.558 734 329C735.5 330.5 736.255 331.039 737.375 333.562C737.851 334.619 743 349 743 349C743 349 745.327 345.388 745.375 341.812C745.016 325.068 737.148 311.113 729 297C730.695 298.644 732.356 300.306 734 302C734.814 302.837 734.814 302.837 735.645 303.691C740.768 309.231 744.383 315.403 748 322C750.332 315.887 746.44 308.696 744 303C740.897 296.565 737.493 290.285 734.044 284.03C733 282 733 282 732 279C733.901 280.222 735.795 281.453 737.688 282.688C738.743 283.372 739.799 284.056 740.887 284.762C743.924 286.945 746.363 289.363 749 292C749.66 292 750.32 292 751 292C749.604 287.928 747.694 285.104 744.938 281.812C744.132 280.848 743.326 279.884 742.496 278.891C740.206 276.239 737.869 273.644 735.5 271.062C730.578 265.672 726.288 259.9 722 254C724.239 255.075 726.102 256.081 728.062 257.625C732.584 259.741 737.087 259.232 742 259C742 258.34 742 257.68 742 257C741.383 256.72 740.765 256.441 740.129 256.152C716.613 245.021 705.162 223.876 693.497 201.822C673.215 163.593 644.824 126.094 609.75 100.305C607.91 98.9332 606.113 97.5171 604.316 96.0898C586.107 81.7741 565.118 70.473 543.148 63.1055C540 62 540 62 536.59 60.5117C532.848 58.9358 529.093 57.7078 525.188 56.625C524.434 56.4158 523.681 56.2067 522.905 55.9912C510.181 52.5901 496.957 49.7724 483.848 48.4219C480 48 480 48 478 47C485.59 44.36 493.18 41.72 501 39C501 38.01 501 37.02 501 36C490.158 30.7319 481.568 30.9167 470.207 34.7305C462.291 37.8642 455.144 42.4171 448 47C448.482 46.059 448.964 45.118 449.461 44.1484C450.099 42.8907 450.737 41.6329 451.375 40.375C451.692 39.7575 452.009 39.1401 452.336 38.5039C455.551 32.1401 457.301 26.7376 457.375 19.5C457.403 18.2316 457.432 16.9631 457.461 15.6562C456.928 11.4266 455.704 9.25745 453 6C452.34 6 451.68 6 451 6Z" fill="#030303"/>
<path d="M545.5 305.5C547.762 306.18 547.762 306.18 550.188 307.375C550.996 307.764 551.804 308.154 552.637 308.555C553.252 308.867 553.866 309.179 554.5 309.5C551.021 310.66 550.158 310.275 546.812 309.062C546.004 308.775 545.196 308.488 544.363 308.191C543.748 307.963 543.134 307.735 542.5 307.5C543.49 306.84 544.48 306.18 545.5 305.5Z" fill="#342625"/>
<path d="M636.5 271.5C637.16 271.5 637.82 271.5 638.5 271.5C638.83 273.81 639.16 276.12 639.5 278.5C635.625 276.75 635.625 276.75 634.5 274.5C635.16 274.5 635.82 274.5 636.5 274.5C636.5 273.51 636.5 272.52 636.5 271.5Z" fill="#1A0D0C"/>
<path d="M513.5 250.5C515.277 253.166 516.375 255.528 517.5 258.5C516.18 258.17 514.86 257.84 513.5 257.5C512.566 254.49 512.455 253.633 513.5 250.5Z" fill="#0F0F0F"/>
<path d="M464.062 394.438C465.197 394.458 466.331 394.479 467.5 394.5C467.17 395.49 466.84 396.48 466.5 397.5C465.51 397.83 464.52 398.16 463.5 398.5C461.312 397.062 461.312 397.062 459.5 395.5C460.5 394.5 460.5 394.5 464.062 394.438Z" fill="#A5B0B2"/>
<path d="M809.5 490L803.5 511.5C803.5 511.5 800.764 518.572 798 522.5C795.377 526.228 790 531 790 531C785.5 534.5 776 537.5 776 537.5" stroke="black" stroke-width="6"/>
<path d="M674.5 543L686.5 550.5C686.5 550.5 693.02 553.787 697.5 555C700.754 555.881 705.5 555.5 708.5 555.5C713.885 555.5 720.5 551 720.5 551" stroke="black" stroke-width="4"/>
<path d="M629.5 445C609 485 624.236 511 630.549 519.5C638.432 527.737 650 535.5 660.049 535.5C660.049 535.5 609 519.5 629.5 445Z" fill="#F1F1F1"/>
<path d="M285.049 447.5C305.549 487.5 290.313 513.5 284 522C276.117 530.237 264.549 538 254.5 538C254.5 538 305.549 522 285.049 447.5Z" fill="#F1F1F1"/>
<path d="M284.467 330.296C284.268 336.915 285.187 341.026 284.467 341C283.748 340.974 282.982 336.323 283.181 329.703C283.38 323.084 288.867 319.004 289.587 319.03C290.306 319.056 284.666 323.677 284.467 330.296Z" fill="#DB7976" fill-opacity="0.6"/>
<path d="M270.528 325.491C269.623 332.038 271.426 336.67 270.577 336.527C269.727 336.384 268.159 331.24 269.064 324.693C269.969 318.146 276.883 314.982 277.733 315.125C278.582 315.268 271.433 318.944 270.528 325.491Z" fill="#DB7976" fill-opacity="0.6"/>
<path d="M257.318 321.04C256.413 327.587 257.892 332.164 257.158 332.04C256.424 331.917 255.159 326.824 256.064 320.277C256.969 313.73 263.021 310.421 263.755 310.544C264.489 310.668 258.223 314.492 257.318 321.04Z" fill="#DB7976" fill-opacity="0.6"/>
<path d="M602.685 326.907C602.884 332.903 600.99 336.844 601.71 336.82C602.429 336.796 604.17 332.366 603.971 326.37C603.772 320.374 598.284 316.678 597.565 316.702C596.846 316.725 602.486 320.911 602.685 326.907Z" fill="#DB7976" fill-opacity="0.6"/>
<path d="M614.781 322.985C615.686 328.916 613.883 333.112 614.732 332.983C615.582 332.853 617.15 328.193 616.245 322.262C615.34 316.332 608.426 313.466 607.577 313.595C606.727 313.725 613.877 317.054 614.781 322.985Z" fill="#DB7976" fill-opacity="0.6"/>
<path d="M622.038 315.185C622.963 321.249 622.557 326.112 623.291 326C624.025 325.888 624.216 320.547 623.291 314.483C622.365 308.418 616.3 305.334 615.566 305.446C614.832 305.558 621.113 309.12 622.038 315.185Z" fill="#DB7976" fill-opacity="0.6"/>
<defs>
<linearGradient id="paint0_linear_837_631" x1="608.5" y1="319.592" x2="631.5" y2="353.592" gradientUnits="userSpaceOnUse">
<stop stop-color="#F4BBB4"/>
<stop offset="1" stop-color="#FAE8E8"/>
</linearGradient>
<linearGradient id="paint1_linear_837_631" x1="268.5" y1="317.5" x2="245.5" y2="351.5" gradientUnits="userSpaceOnUse">
<stop stop-color="#F4BBB4"/>
<stop offset="1" stop-color="#FAE8E8"/>
</linearGradient>
<linearGradient id="paint2_linear_837_631" x1="538.72" y1="248.729" x2="538.576" y2="268.698" gradientUnits="userSpaceOnUse">
<stop stop-color="#575858"/>
<stop offset="0.995" stop-color="#DEDEDE"/>
</linearGradient>
<linearGradient id="paint3_linear_837_631" x1="348.536" y1="242.729" x2="348.68" y2="262.698" gradientUnits="userSpaceOnUse">
<stop stop-color="#575858"/>
<stop offset="0.995" stop-color="#DEDEDE"/>
</linearGradient>
</defs>
</svg>
